<?xml version="1.0" standalone="no"?><!DOCTYPE svg PUBLIC "-//W3C//DTD SVG 1.1//EN" "http://www.w3.org/Graphics/SVG/1.1/DTD/svg11.dtd"><svg t="1634699135639" class="icon" viewBox="0 0 1024 1024" version="1.1" xmlns="http://www.w3.org/2000/svg" p-id="46549" width="128" height="128" xmlns:xlink="http://www.w3.org/1999/xlink"><defs><style type="text/css"></style></defs><path d="M972.416 755.072c0 76.5184-206.1312 148.7872-460.416 148.7872S51.584 831.5904 51.584 755.072c0-76.5184 206.1312-138.5216 460.416-138.5216s460.416 62.0032 460.416 138.5216z" fill="#FFA869" p-id="46550"></path><path d="M512 926.8736c-123.4688 0-241.664-16.64-332.8-46.8736-98.56-32.6912-150.6304-75.8784-150.6304-124.9536 0-48.7424 52.3008-90.24 151.2448-120.0128 89.0624-26.8032 207.0272-41.5488 332.1856-41.5488s243.1488 14.7456 332.1856 41.5488c98.944 29.7728 151.2448 71.2704 151.2448 120.0128 0 49.0496-52.096 92.2624-150.6304 124.9536-91.136 30.2336-209.3312 46.8736-332.8 46.8736z m0-287.3088c-120.7808 0-234.0608 14.0544-318.9248 39.6032-87.424 26.3168-118.4512 57.3184-118.4512 75.904 0 19.2512 31.1808 52.0704 119.0656 81.2032 86.5792 28.7232 199.6288 44.5184 318.3104 44.5184s231.7312-15.8208 318.3104-44.5184c87.8848-29.1328 119.0656-61.952 119.0656-81.2032 0-18.56-31.0272-49.5872-118.4512-75.904-84.864-25.5232-198.144-39.6032-318.9248-39.6032z" fill="#474E54" p-id="46551"></path><path d="M236.4928 755.072a275.5072 82.8928 0 1 0 551.0144 0 275.5072 82.8928 0 1 0-551.0144 0Z" fill="#FEF8E3" p-id="46552"></path><path d="M512 861.0048c-143.7952 0-298.5472-33.152-298.5472-105.9328s154.752-105.9328 298.5472-105.9328 298.5472 33.152 298.5472 105.9328-154.752 105.9328-298.5472 105.9328z m0-165.7856c-71.3984 0-138.24 8.2688-188.1856 23.296-53.376 16.0512-64.3072 32.9216-64.3072 36.5568s10.9056 20.5056 64.3072 36.5568c49.9456 15.0272 116.7872 23.296 188.1856 23.296s138.24-8.2688 188.1856-23.296c53.376-16.0512 64.3072-32.9216 64.3072-36.5568s-10.9056-20.5056-64.3072-36.5568c-49.9456-15.0272-116.7872-23.296-188.1856-23.296z" fill="#474E54" p-id="46553"></path><path d="M232.32 295.168a263.9872 62.976 0 1 0 527.9744 0 263.9872 62.976 0 1 0-527.9744 0Z" fill="#FEF8E3" p-id="46554"></path><path d="M496.3072 380.1344c-68.8128 0-134.6048-6.2208-185.216-17.536a22.01088 22.01088 0 0 1-5.7856-40.7808c33.0496-18.0992 106.8544-29.3376 192.5888-29.3376 84.4544 0 157.7728 10.9824 191.3344 28.6464a22.0416 22.0416 0 0 1 11.5712 22.3232 22.03648 22.03648 0 0 1-16.9216 18.6112c-50.8928 11.648-117.5296 18.0736-187.5712 18.0736z" fill="#8D545A" p-id="46555"></path><path d="M496.3072 358.144c-137.728 0-250.8288-25.1648-262.8864-57.2672h-1.1008l39.6032 306.8416c11.8272 91.648 89.856 160.256 182.272 160.256h91.4944c94.0544 0 172.9536-71.0144 182.784-164.5824l31.7952-302.5408h-1.1008c-12.032 32.128-125.1072 57.2928-262.8608 57.2928z" fill="#FFDE77" p-id="46556"></path><path d="M760.2944 300.8768h-1.1008c-7.1424 18.9696-49.4848 35.5072-111.36 45.8496L627.2 544.5376s-4.992 127.616-179.7888 127.616-173.5424-137.7536-173.5424-137.7536l-8.3712 23.6288 6.4 49.664c11.8272 91.648 89.856 160.256 182.272 160.256h91.4944c94.0544 0 172.9536-71.0144 182.784-164.5824l31.8464-302.4896z" fill="#FFA869" p-id="46557"></path><path d="M825.6256 341.0432l-72.7296 20.5312-5.504 64.5632 51.6608-16.4864c28.5696-8.2432 38.7072 8.2176 36.48 34.176-2.6624 31.0784-13.6448 69.0176-27.52 94.2848-5.6832 9.8304-16.6656 41.3952-77.6448 47.3344l-1.8944 17.92a184.36608 184.36608 0 0 1-8.8064 40.0384c90.1632-1.6896 129.1264-56.2432 137.8048-72.064 28.1856-51.3536 37.9136-102.0928 42.3168-153.4976 3.6608-42.9056-39.7312-88.832-74.1632-76.8z" fill="#FFA869" p-id="46558"></path><path d="M882.5856 332.928c-20.1984-15.6672-43.4176-20.7104-63.8208-13.9008l-38.3488 10.8288 2.7904-26.5984c0.1792-1.664 0.1536-3.3536-0.0256-4.992 0.0768-1.024 0.1536-2.0736 0.1536-3.1232 0-34.9184-44.9536-55.6544-99.4304-67.9936l105.8304-114.8928c8.6272-9.3696 8.0128-23.936-1.3312-32.5632-9.344-8.6272-23.936-8.0384-32.5632 1.3312l-125.9264 136.6784c-61.2352-8.0896-120.448-8.6016-133.632-8.6016-29.3888 0-287.0272 2.4064-287.0272 86.016 0 1.1008 0.0768 2.1504 0.1536 3.2256-0.2048 1.792-0.2048 3.6096 0.0256 5.4272L249.088 610.6624c13.2608 102.8096 101.4528 180.352 205.1328 180.352h91.4944c84.9152 0 158.4384-50.9696 190.1568-125.3632 95.616-7.9872 134.656-70.1696 141.7984-83.1488 32.7424-59.6224 41.2928-118.2464 45.0816-162.6368 2.6624-31.3088-13.4912-66.2272-40.1664-86.9376z m-114.1248 110.6944l37.2736-11.8784c3.0976-0.8704 5.1712-1.1264 6.4-1.152 0.4864 1.8688 0.9728 5.5296 0.4608 11.3152-2.3808 27.8528-12.4928 62.7712-24.6528 84.992-0.5888 1.0496-1.2288 2.2528-1.9456 3.6352-3.712 7.0656-9.728 18.56-29.3632 25.9328l11.8272-112.8448z m-103.1424-173.312c43.2384 9.0112 62.8736 19.2768 69.7856 24.8576-1.4592 1.1776-3.456 2.56-6.1184 4.0704-0.1024 0.0512-0.1792 0.1024-0.2816 0.1536-0.7936 0.4608-1.664 0.9216-2.56 1.3824-0.2048 0.1024-0.384 0.2048-0.5888 0.3072-1.0496 0.5376-2.1504 1.0752-3.3536 1.6384-0.0256 0.0256-0.0768 0.0256-0.1024 0.0512-0.5376 0.256-1.1008 0.512-1.664 0.768l-1.2288 0.5376c-0.8448 0.3584-1.7152 0.7424-2.6368 1.1264-0.5376 0.2304-1.0752 0.4352-1.6384 0.6656l-1.7664 0.6912c-0.9472 0.384-1.9456 0.7424-2.9696 1.1264-0.5888 0.2304-1.2032 0.4352-1.8176 0.6656-0.8192 0.2816-1.6384 0.5888-2.5088 0.8704-0.8192 0.2816-1.6384 0.5632-2.4832 0.8448-0.9472 0.3072-1.92 0.64-2.944 0.9472-0.64 0.2048-1.2544 0.4096-1.92 0.5888-1.3824 0.4352-2.7904 0.8448-4.2496 1.28-0.64 0.1792-1.28 0.3584-1.9456 0.5632-1.3056 0.384-2.6368 0.7424-4.0192 1.1264-0.7168 0.2048-1.4336 0.384-2.1504 0.5888-1.4592 0.384-2.9696 0.768-4.48 1.152-0.6656 0.1792-1.3568 0.3328-2.048 0.512-1.8432 0.4352-3.712 0.896-5.6576 1.3312l-2.0736 0.4608c-1.8432 0.4096-3.712 0.8192-5.632 1.2288-0.3328 0.0768-0.64 0.128-0.9472 0.2048-22.8864 4.7616-49.024 8.4992-77.1072 11.0336l59.136-64.1792c6.1696 1.0496 12.16 2.176 17.9712 3.4048z m-169.0112-15.0784c32.9216 0 65.1264 1.5104 95.104 4.3264l-69.2736 75.2128c-8.5504 0.2048-17.152 0.3072-25.8048 0.3072-62.4128 0-122.4192-5.3504-168.9856-15.0528-0.2816-0.0512-0.5376-0.1024-0.7936-0.1792-1.9968-0.4096-3.9424-0.8448-5.8624-1.28-0.6656-0.1536-1.3312-0.3072-1.9712-0.4352-1.9712-0.4608-3.8656-0.896-5.7088-1.3568-0.6656-0.1536-1.3312-0.3328-1.9968-0.4864-1.5616-0.384-3.072-0.768-4.5568-1.1776-0.7168-0.1792-1.408-0.384-2.0992-0.5632-1.3824-0.384-2.7136-0.7424-4.0448-1.1264-0.6656-0.1792-1.3056-0.384-1.9456-0.5632-1.4592-0.4352-2.8672-0.8448-4.224-1.28-0.6656-0.2048-1.28-0.4096-1.92-0.6144-0.9984-0.3072-1.9456-0.6144-2.8928-0.9472-0.8704-0.2816-1.7152-0.5632-2.56-0.8704-0.8192-0.2816-1.6384-0.5632-2.432-0.8448-0.64-0.2304-1.2544-0.4608-1.8688-0.6656-0.9984-0.384-1.9968-0.7424-2.9184-1.1008-0.6144-0.2304-1.2288-0.4864-1.8176-0.7168-0.5376-0.2048-1.0496-0.4096-1.536-0.64-0.9472-0.384-1.8688-0.768-2.7392-1.152-0.384-0.1792-0.768-0.3328-1.152-0.512-1.8944-0.8448-3.6096-1.6896-5.1712-2.4832-0.1792-0.0768-0.3328-0.1792-0.512-0.256-0.9472-0.4864-1.8432-0.9728-2.6624-1.4336-0.0768-0.0512-0.1536-0.0768-0.2048-0.128-2.688-1.536-4.7104-2.9184-6.144-4.096 6.912-5.5808 26.5216-15.8208 69.7856-24.8576 46.4896-9.6768 106.5216-15.0272 168.9088-15.0272z m49.408 489.7024h-91.4944c-80.5632 0-149.12-60.2624-159.4368-140.16l-32.9984-255.6416c2.5344 0.9984 5.1712 1.9712 7.9104 2.944 0.256 0.1024 0.512 0.1792 0.7936 0.2816 1.1776 0.4096 2.3808 0.8448 3.6096 1.2544 14.6688 4.9664 30.9248 9.0368 47.7952 12.3648 0.2816 0.0512 0.5888 0.128 0.8704 0.1792 0.1792 0.0256 0.3584 0.0768 0.512 0.1024 46.8736 9.2928 104.9344 14.5152 165.5808 14.9248 3.2 0.0256 5.7344 0.0512 7.4496 0.0512 1.7152 0 4.2496 0 7.4496-0.0512 60.7488-0.4096 118.8864-5.632 165.7856-14.9504 0.1024-0.0256 0.2048-0.0512 0.3328-0.0512 0.3072-0.0512 0.5888-0.128 0.896-0.1792 15.3088-3.0208 30.08-6.656 43.648-11.008 0.2304-0.0768 0.4352-0.1536 0.6656-0.2048 1.3312-0.4352 2.6368-0.8704 3.9424-1.3056 1.1776-0.384 2.3296-0.7936 3.4816-1.2032a232.77568 232.77568 0 0 0 9.6256-3.6096l-0.4096 3.968c-0.9472 2.2016-1.5616 4.5568-1.7664 7.04l-4.4032 51.5072-18.0736 171.9552v0.1024l-1.8688 17.792-0.0768 0.512c-0.2816 2.6624-0.64 5.3248-1.0752 7.9616-0.0768 0.5376-0.2048 1.1008-0.2816 1.6384-0.4096 2.4064-0.8448 4.8128-1.3824 7.1936l-0.2304 0.9728c-1.28 5.6576-2.816 11.264-4.7104 16.768-0.0768 0.2048-0.1024 0.4096-0.1536 0.5888a160.37376 160.37376 0 0 1-151.9872 108.2624z m331.1104-329.0112c-3.6096 42.368-11.136 92.6464-39.552 144.384-2.8416 5.1968-26.7264 45.3888-87.424 57.0112 0.0512-0.2816 0.0768-0.5632 0.128-0.8448l0.3072-2.0992c0.4096-2.8416 0.7936-5.7088 1.1008-8.576l0.0256-0.1792c52.864-10.8032 68.9152-41.4464 75.3664-53.7344 0.4352-0.8448 0.8192-1.5872 1.1776-2.2272 0.0768-0.1536 0.1792-0.2816 0.256-0.4352 15.4368-28.1088 27.3152-68.7104 30.2848-103.424 2.4832-29.0304-7.8592-44.032-16.9472-51.4816-8.6016-7.0656-24.064-13.952-48.896-6.784-0.2048 0.0512-0.4096 0.128-0.6144 0.1792l-18.3296 5.8368 1.5104-14.3616 56.6528-16c0.4608-0.128 0.896-0.256 1.3312-0.4352 5.4784-1.8944 13.3632 0.5376 21.12 6.5536 14.3872 11.1872 23.8592 30.7712 22.5024 46.6176z" fill="#474E54" p-id="46559"></path><path d="M466.7136 458.752c-81.664 0-129.8176-15.488-130.4064-15.6928a17.92 17.92 0 0 1-11.1616-22.7584 17.95072 17.95072 0 0 1 22.6048-11.2128c1.8176 0.5632 76.3392 23.552 197.12 9.0112 9.8304-1.1776 18.7392 5.8368 19.9424 15.6416s-5.8368 18.7392-15.6416 19.9424c-30.2592 3.6608-57.8816 5.0688-82.4576 5.0688z" fill="#F7F8F8" p-id="46560"></path></svg>