<?xml version="1.0" standalone="no"?><!DOCTYPE svg PUBLIC "-//W3C//DTD SVG 1.1//EN" "http://www.w3.org/Graphics/SVG/1.1/DTD/svg11.dtd"><svg t="1634699357251" class="icon" viewBox="0 0 1024 1024" version="1.1" xmlns="http://www.w3.org/2000/svg" p-id="47766" xmlns:xlink="http://www.w3.org/1999/xlink" width="128" height="128"><defs><style type="text/css"></style></defs><path d="M543.6416 264.3968c5.1456-6.9888 8.2432-15.5904 8.2432-24.96 0-23.296-18.8672-42.1632-42.1632-42.1632-17.2288 0-32.0512 10.368-38.5792 25.1904-116.224-40.7808-260.8384 14.7456-344.9088 140.6464-93.6192 140.1856-77.9264 316.2112 33.1264 401.1008-5.2736 7.04-8.448 15.7696-8.448 25.2416 0 23.296 18.8672 42.1632 42.1632 42.1632 19.072 0 35.1488-12.672 40.3712-30.0288 114.048 33.152 251.8016-22.784 333.056-144.4608 90.624-135.7056 78.7968-305.0752-22.8608-392.7296z" fill="#F9C05D" p-id="47767"></path><path d="M558.3104 289.5104s-227.584 12.3904-292.8128 243.7888c-54.912 194.7904 56.2176 269.2864 56.2176 269.2864l81.4592-18.304s-95.5904-99.328-64.7936-257.6384c17.3312-58.7264 55.2192-167.8848 230.4-210.688 3.8912-21.376-10.4704-26.4448-10.4704-26.4448z" fill="#EAA242" p-id="47768"></path><path d="M607.9744 585.9072m-269.6192 0a269.6192 269.6192 0 1 0 539.2384 0 269.6192 269.6192 0 1 0-539.2384 0Z" fill="#FFE08A" p-id="47769"></path><path d="M245.2224 357.7856c-4.224 0-8.3968-1.7152-11.4432-5.0944-5.6576-6.3232-5.1456-16.0256 1.1776-21.6832 1.792-1.6128 44.16-39.3728 87.8336-55.8848 7.936-2.9952 16.7936 0.9984 19.7888 8.9344 2.9952 7.936-0.9984 16.7936-8.9344 19.7888-38.2464 14.464-77.7984 49.664-78.1824 50.0224a15.1936 15.1936 0 0 1-10.24 3.9168z" fill="#F7F8F8" p-id="47770"></path><path d="M386.7392 274.3552m-16.384 0a16.384 16.384 0 1 0 32.768 0 16.384 16.384 0 1 0-32.768 0Z" fill="#F7F8F8" p-id="47771"></path><path d="M707.1232 335.104c12.8768-24.32 21.7856-90.0608 10.6752-123.392-75.3408 27.4944-106.5984 70.9632-119.4496 104.7808 3.2-0.1024 6.4-0.1792 9.6256-0.1792 100.1472 0 187.5456 54.6048 234.0352 135.6544 63.5392-39.8336 112.896-111.8464 124.8-160.512-124.8512-36.608-214.4 0.6656-259.6864 43.648z" fill="#64D882" p-id="47772"></path><path d="M951.7824 297.984s-74.5216 65.3568-145.1008 86.272c30.0544 40.5248 44.0064 61.9776 44.0064 61.9776s99.7888-85.504 101.0944-148.2496z" fill="#52C169" p-id="47773"></path><path d="M798.7712 601.2672H414.8224c-8.4736 0-15.36-6.8864-15.36-15.36s6.8864-15.36 15.36-15.36h383.9488c8.4736 0 15.36 6.8864 15.36 15.36s-6.8864 15.36-15.36 15.36z" fill="#EAA242" p-id="47774"></path><path d="M606.7968 793.2416c-8.4736 0-15.36-6.8864-15.36-15.36V393.9328c0-8.4736 6.8864-15.36 15.36-15.36s15.36 6.8864 15.36 15.36v383.9488c0 8.4736-6.8608 15.36-15.36 15.36z" fill="#EAA242" p-id="47775"></path><path d="M471.0656 737.024a15.36 15.36 0 0 1-10.8544-26.2144L731.6992 439.296a15.36 15.36 0 0 1 21.7088 0c5.9904 5.9904 5.9904 15.7184 0 21.7344L481.92 732.5184a15.33696 15.33696 0 0 1-10.8544 4.5056z" fill="#EAA242" p-id="47776"></path><path d="M742.5536 737.024c-3.9424 0-7.8592-1.5104-10.8544-4.5056L460.1856 461.0304c-5.9904-5.9904-5.9904-15.7184 0-21.7344a15.36 15.36 0 0 1 21.7088 0L753.408 710.8096a15.36 15.36 0 0 1-10.8544 26.2144z" fill="#EAA242" p-id="47777"></path><path d="M834.2784 839.8336c-15.1552 0-27.4432 12.288-27.4432 27.4432s12.288 27.4432 27.4432 27.4432 27.4432-12.288 27.4432-27.4432-12.2624-27.4432-27.4432-27.4432z" fill="#474E54" p-id="47778"></path><path d="M429.2608 894.7456m-19.4048 0a19.4048 19.4048 0 1 0 38.8096 0 19.4048 19.4048 0 1 0-38.8096 0Z" fill="#474E54" p-id="47779"></path><path d="M973.2864 269.3376c-105.2416-30.848-181.632-11.3664-229.3248 12.6976 3.1232-27.9296 2.3808-57.472-4.3264-77.6192a23.05792 23.05792 0 0 0-29.7728-14.3616c-64.4864 23.5264-99.8144 58.4448-119.1936 90.0608-5.8624-7.296-12.1344-14.3104-18.816-20.992 2.0224-6.3232 3.0464-12.9536 3.0464-19.712 0-35.9424-29.2352-65.2032-65.2032-65.2032a65.1264 65.1264 0 0 0-48.0512 21.1712c-57.8048-15.7184-122.2912-11.0848-183.6032 13.4912-67.4048 27.008-128.128 77.2352-170.9824 141.4144C11.3408 493.6704 22.784 673.9712 130.7136 770.4064c-1.8688 6.1184-2.8416 12.5184-2.8416 19.072 0 35.9424 29.2352 65.2032 65.2032 65.2032 20.864 0 40.1664-10.1888 52.2752-26.3424 57.0112 12.0832 117.4272 4.7104 173.8752-18.944 50.9952 43.136 116.8896 69.1968 188.7488 69.1968 161.3824 0 292.6592-131.2768 292.6592-292.6592 0-45.2608-10.3424-88.1664-28.7744-126.4896 61.6192-45.5168 105.7792-115.3792 117.3248-162.4832 2.944-11.9808-4.0704-24.1408-15.8976-27.6224z m-273.5616-24.96c0.7168 20.1728-2.2272 44.0832-6.5792 61.5424-18.2016-5.5552-37.1712-9.3696-56.6784-11.264 12.8512-17.2288 32.6656-35.2256 63.2576-50.2784zM239.872 779.4688c-12.1344-3.5072-24.8576 3.3792-28.4928 15.488-2.4064 8.0128-9.9328 13.6192-18.304 13.6192-10.5472 0-19.1232-8.576-19.1232-19.1232 0-5.1968 2.0992-9.088 3.84-11.4176 7.5776-10.112 5.6064-24.448-4.4288-32.128-102.1184-78.0544-114.4064-240.5888-27.9808-369.9968 60.16-90.0864 156.0576-143.5648 246.9376-143.5648 24.3456 0 48.3584 3.84 71.1936 11.8528a23.0016 23.0016 0 0 0 28.6976-12.4416c3.072-6.9376 9.9328-11.4432 17.4848-11.4432 10.5472 0 19.1232 8.576 19.1232 19.1232 0 5.12-2.0224 8.96-3.7376 11.2896a23.02976 23.02976 0 0 0 3.5072 31.104c6.5024 5.6064 12.544 11.5968 18.2272 17.8688-132.096 28.2112-231.5008 145.8176-231.5008 286.208 0 71.4496 25.7536 136.9856 68.4544 187.8528-47.7184 16.4096-97.6128 19.1744-143.8976 5.7088z m368.1024 53.0176c-53.4784 0-103.0144-17.1264-143.4624-46.1312 0 0-31.616-22.1696-36.5056-32.0512-41.2928-44.1088-66.6368-103.3472-66.6368-168.3968 0-125.184 93.7728-228.8896 214.7584-244.5312 0 0 33.6128-6.4512 50.5344-1.3056 45.44 3.4816 88.6272 19.5328 124.9536 45.568l0.5632 0.4096c1.6128 1.152 3.2 2.3552 4.7872 3.5584 0.8192 0.6144 1.6384 1.2288 2.432 1.8688 0.7424 0.5888 1.4848 1.1776 2.2016 1.7664 56.6016 45.2096 92.928 114.7904 92.928 192.6912 0.0256 135.936-110.592 246.5536-246.5536 246.5536z m240.6144-413.184a292.4032 292.4032 0 0 0-59.2896-62.9248c-0.5632-0.4608-1.152-0.896-1.7152-1.3312-1.152-0.896-2.304-1.7664-3.456-2.6624-1.4336-1.0752-2.8928-2.1504-4.352-3.2256-0.4096-0.3072-0.8448-0.6144-1.2544-0.9216-8.8064-6.3488-17.9968-12.2112-27.4944-17.5616 34.4832-20.992 95.9232-43.4944 186.0352-23.168-15.3856 36.1984-47.872 80.5376-88.4736 111.7952z" fill="#474E54" p-id="47780"></path></svg>