<?xml version="1.0" standalone="no"?><!DOCTYPE svg PUBLIC "-//W3C//DTD SVG 1.1//EN" "http://www.w3.org/Graphics/SVG/1.1/DTD/svg11.dtd"><svg t="1634699369658" class="icon" viewBox="0 0 1024 1024" version="1.1" xmlns="http://www.w3.org/2000/svg" p-id="48084" xmlns:xlink="http://www.w3.org/1999/xlink" width="128" height="128"><defs><style type="text/css"></style></defs><path d="M900.5056 258.7904c0 71.936-171.5456 95.3856-383.1552 95.3856s-383.1552-19.7376-383.1552-95.3856c0-81.792 171.5456-136.96 383.1552-136.96s383.1552 55.168 383.1552 136.96z" fill="#F9C05D" p-id="48085"></path><path d="M160.2816 385.5616s321.664 123.0336 716.6208 0c-62.1056 95.5648-141.5936 126.592-358.2976 126.592S202.5216 476.288 160.2816 385.5616z" fill="#FFA869" p-id="48086"></path><path d="M166.5024 515.84s49.6896 81.9712 352.1024 81.9712 344.6528-88.1408 344.6528-88.1408 84.4544 63.3088 0 136.576-239.1808 86.7328-351.2064 86.7328-261.0176-7.3472-331.8016-71.936-57.216-121.6-13.7472-145.2032z" fill="#FE697D" p-id="48087"></path><path d="M144.128 723.5584s47.2064 94.3872 373.1968 94.3872 367.0016-100.608 367.0016-100.608 88.192 14.8992 88.192 62.1056-132.8896 117.12-453.9392 117.12-489.1904-61.6704-463.872-129.536c11.8784-31.8208 89.4208-43.4688 89.4208-43.4688z" fill="#F9C05D" p-id="48088"></path><path d="M517.3504 377.216c-121.2416 0-211.4048-6.4768-275.6096-19.8144-32.3072-6.7072-130.5856-27.1104-130.5856-98.6112 0-34.9696 22.1696-84.352 127.7184-120.9088 72.7552-25.1904 171.648-39.0912 278.4768-39.0912 106.8032 0 205.7216 13.8752 278.4768 39.0912 105.5744 36.5568 127.7184 85.9392 127.7184 120.9088 0 17.6896-7.0656 43.2896-40.8064 64.6912-21.248 13.4912-50.56 24.1152-89.6256 32.4864-65.7664 14.1056-158.5408 21.248-275.7632 21.248z m0-232.3456c-222.4384 0-360.1152 59.136-360.1152 113.92 0 21.76 35.0976 72.3456 360.1152 72.3456 113.9712 0 203.52-6.8096 266.0864-20.1984 59.7504-12.8 94.0032-31.7952 94.0032-52.1472 0.0256-54.784-137.6512-113.92-360.0896-113.92z" fill="#474E54" p-id="48089"></path><path d="M518.5792 535.1936c-226.0224 0-332.3392-39.2192-379.1872-139.9296a23.00928 23.00928 0 0 1 4.0448-25.4208 23.0144 23.0144 0 0 1 25.0624-5.8112c0.7936 0.3072 80.4096 30.2336 206.2848 44.9792 115.84 13.568 295.7824 16.6912 495.2576-45.44 9.2672-2.8928 19.3536 0.3584 25.216 8.0896a23.03232 23.03232 0 0 1 0.9472 26.4704c-68.2752 105.0368-156.4928 137.0624-377.6256 137.0624zM220.9024 427.776c52.1728 43.4432 143.8464 61.3376 297.6768 61.3376 165.632 0 242.688-19.328 292.608-61.4144-178.5856 43.648-336.9984 39.5008-443.4176 26.88-60.4928-7.168-110.3616-17.5616-146.8672-26.8032z" fill="#474E54" p-id="48090"></path><path d="M507.4688 701.3632c-1.3824 0-2.7648-0.0256-4.1728-0.1024-24.6016-1.3568-44.2112-14.6432-60.672-27.008-27.9808-20.992-58.1376-28.3392-84.9152-20.7104-40.448 11.5712-98.9952 8.9856-132.5056-23.808-26.5728-22.144-57.472-34.2528-91.904-35.968-9.8816-0.4864-17.4848-8.9088-16.9984-18.7904a17.856 17.856 0 0 1 18.7904-16.9984c42.6496 2.1248 80.9216 17.2032 113.7408 44.8 0.384 0.3328 0.768 0.6656 1.1264 1.0496 22.1184 22.0928 65.9968 24.4224 97.92 15.2832 37.8112-10.8032 79.104-1.3824 116.2752 26.496 25.9328 19.4304 50.4064 37.8112 96.64-11.5712 0.3584-0.384 0.7424-0.7424 1.1264-1.1008 30.6944-27.4688 64.128-38.6048 127.4368-3.5584 18.3808 10.1632 33.3824 13.568 44.5952 10.0864 9.2672-2.8672 16.8448-10.752 23.8592-24.7808 14.2336-28.4928 70.6304-49.6896 131.8656-35.8656a17.8944 17.8944 0 0 1 13.5168 21.4272c-2.176 9.6512-11.8016 15.6928-21.4272 13.5168-51.584-11.6736-87.9616 9.0368-91.904 16.9216-4.224 8.4736-17.1264 34.2272-45.2864 42.9824-20.8896 6.4768-45.2864 2.1248-72.5504-12.9536-53.3504-29.5168-69.9648-15.5904-85.6064-1.6128-26.8032 28.3904-52.6592 42.2656-78.9504 42.2656z" fill="#F7F8F8" p-id="48091"></path><path d="M512.0256 756.0192c-121.9328 0-271.616-8.8576-347.3408-77.952-52.5568-47.9488-59.776-89.3696-56.576-115.6352 3.4048-27.9552 20.6848-52.3264 47.4112-66.8416 5.4784-2.9696 11.4688-4.352 17.408-2.5088 5.7856 1.792 10.24 5.0944 13.0816 10.4192 4.3008 5.248 63.8208 71.2704 332.5952 71.2704 275.5328 0 323.5072-74.3168 323.8656-75.0592a23.02208 23.02208 0 0 1 34.5856-8.4736c1.8432 1.3824 44.928 34.2272 46.6944 83.8656 1.1264 31.616-14.1568 61.4144-45.4144 88.5504-70.6304 61.2864-193.8944 92.3648-366.3104 92.3648zM164.1472 546.2784c-4.9152 5.2992-9.1648 12.416-10.2912 21.7088-2.6624 21.9392 12.2112 48.9472 41.8816 76.032 64.768 59.0848 211.5328 65.92 316.288 65.92 158.7456 0 274.9696-28.032 336.1024-81.1008 20.1472-17.4848 30.08-34.9184 29.568-51.8656-0.4096-13.1584-6.8608-24.8832-13.5168-33.5616-34.3808 30.2336-123.6224 77.44-345.6256 77.44-230.016 0-320.9216-47.0528-354.4064-74.5728z m22.0416-42.3936z" fill="#474E54" p-id="48092"></path><path d="M518.5792 919.6032c-254.1568 0-432.6656-38.528-477.4656-103.0912-12.544-18.048-15.2832-37.9648-7.9872-57.5488 7.6032-20.352 28.3648-35.8912 63.5136-47.488 22.4768-7.424 43.1872-10.5728 44.0576-10.7264 10.3424-1.5616 19.7376 2.56 23.8592 12.0832 3.9424 5.7344 62.1312 82.048 352.768 82.048 289.6384 0 342.2976-80.6656 345.8048-86.656 3.6608-10.5728 13.9264-15.488 25.0368-13.6192 10.9824 1.8688 107.392 20.0192 107.392 84.8128 0 38.1184-43.5456 73.0112-122.624 98.2016-86.0928 27.4688-208.6144 41.984-354.3552 41.984zM134.4512 748.7744c-28.4928 6.2208-54.9888 17.8432-58.1376 26.3168-1.4336 3.8144-2.0992 8.2944 2.6624 15.1552 6.9888 10.0608 33.664 35.712 130.4576 56.7296 80 17.3824 186.9056 26.5472 309.1712 26.5472 178.176 0 283.4432-21.632 340.3776-39.7824 75.1616-23.9616 90.5216-48.9472 90.5216-54.2976 0-16.0256-30.5664-29.5936-54.784-36.1728-27.008 32.6912-113.8688 97.7152-377.344 97.7152-265.856 0-355.2512-62.1312-382.9248-92.2112z m13.1072-2.432z m17.1776-33.1008z m698.2656-4.5824z" fill="#474E54" p-id="48093"></path><path d="M312.5504 239.3088c-4.736 0-9.5232-1.4592-13.6448-4.5056l-16.3072-12.032c-10.24-7.552-12.4416-21.9648-4.8896-32.2048s21.9648-12.416 32.2048-4.8896l16.3072 12.032c10.24 7.552 12.4416 21.9648 4.8896 32.2048a23.00416 23.00416 0 0 1-18.56 9.3952z" fill="#70E7D3" p-id="48094"></path><path d="M240.8704 283.52c-7.3216 0-14.5152-3.4816-18.9952-9.984a23.03744 23.03744 0 0 1 5.9136-32.0512l19.328-13.312c10.4704-7.2192 24.832-4.5824 32.0512 5.9136s4.5824 24.832-5.9136 32.0512l-19.328 13.312a22.84544 22.84544 0 0 1-13.056 4.0704zM371.84 311.4496c-7.4496 0-14.7456-3.6096-19.2-10.2656l-9.4464-14.1568a23.02464 23.02464 0 0 1 6.4-31.9488c10.5728-7.0656 24.8832-4.1984 31.9488 6.3744l9.4464 14.1824a23.02464 23.02464 0 0 1-6.4 31.9488 22.95808 22.95808 0 0 1-12.7488 3.8656z" fill="#F7F8F8" p-id="48095"></path><path d="M426.3168 280.0896c-4.4544 0-8.9344-1.28-12.8768-3.968l-14.592-9.8816a23.02976 23.02976 0 0 1-6.1696-32c7.1168-10.5472 21.4528-13.312 32-6.1696l14.592 9.8816a23.02976 23.02976 0 0 1 6.1696 32 23.02464 23.02464 0 0 1-19.1232 10.1376z" fill="#67B8FA" p-id="48096"></path><path d="M446.5408 326.0416c-8.2944 0-16.2816-4.48-20.4032-12.3136-5.9136-11.264-1.6128-25.1904 9.6512-31.1296l16.3072-8.576c11.264-5.9392 25.1904-1.6128 31.1296 9.6512 5.9136 11.264 1.6128 25.1904-9.6512 31.1296l-16.3072 8.576a23.2448 23.2448 0 0 1-10.7264 2.6624zM373.9392 227.2768c-5.6832 0-11.392-2.0992-15.8464-6.3232-9.2416-8.7552-9.6256-23.3472-0.8448-32.5632l15.8976-16.7424c8.7552-9.2416 23.3472-9.6256 32.5632-0.8448 9.2416 8.7552 9.6256 23.3472 0.8448 32.5632l-15.8976 16.7424a22.9376 22.9376 0 0 1-16.7168 7.168zM471.9616 206.6688c-4.352 0-8.7296-1.2288-12.6464-3.7888l-16.3072-10.7264c-10.624-6.9888-13.568-21.2736-6.5792-31.9232 6.9888-10.624 21.2736-13.568 31.8976-6.5792l16.3072 10.7264c10.624 6.9888 13.568 21.2736 6.5792 31.9232-4.4032 6.7328-11.7504 10.368-19.2512 10.368z" fill="#F7F8F8" p-id="48097"></path><path d="M527.6672 286.976c-5.888 0-11.8016-2.2528-16.2816-6.7584l-16.7424-16.7424c-8.9856-8.9856-8.9856-23.5776 0-32.5888a23.06816 23.06816 0 0 1 32.5888 0l16.7424 16.7424c8.9856 8.9856 8.9856 23.5776 0 32.5888a23.05536 23.05536 0 0 1-16.3072 6.7584z" fill="#FFA869" p-id="48098"></path><path d="M546.9696 213.5552c-9.7024 0-18.7136-6.1696-21.888-15.8976-3.9424-12.1088 2.6624-25.1136 14.7456-29.056l21.0432-6.8608c12.0832-3.9424 25.1136 2.6624 29.056 14.7456 3.9424 12.1088-2.6624 25.1136-14.7456 29.056l-21.0432 6.8608c-2.3808 0.768-4.7872 1.152-7.168 1.152z" fill="#FC697C" p-id="48099"></path><path d="M643.584 215.68c-5.6064 0-11.2384-2.048-15.6672-6.144l-12.032-11.1616c-9.3184-8.6528-9.856-23.2448-1.2032-32.5632 8.6528-9.3184 23.2448-9.856 32.5632-1.2032l12.032 11.1616c9.3184 8.6528 9.856 23.2448 1.2032 32.5632a23.02208 23.02208 0 0 1-16.896 7.3472z" fill="#F7F8F8" p-id="48100"></path><path d="M592.9216 317.44c-4.992 0-10.0352-1.6128-14.2592-4.9664-9.984-7.8848-11.6992-22.3744-3.8144-32.3584l12.8768-16.3072c7.8848-9.984 22.3744-11.6992 32.3584-3.8144 9.984 7.8848 11.6992 22.3744 3.8144 32.3584l-12.8768 16.3072a22.9504 22.9504 0 0 1-18.0992 8.7808z" fill="#77C5E8" p-id="48101"></path><path d="M694.272 304.3584c-7.4496 0-14.7456-3.6096-19.2-10.2656l-11.5968-17.3824a23.02464 23.02464 0 0 1 6.4-31.9488c10.5728-7.0656 24.8832-4.1984 31.9488 6.4l11.5968 17.3824a23.02464 23.02464 0 0 1-6.4 31.9488 22.95808 22.95808 0 0 1-12.7488 3.8656z" fill="#F7F8F8" p-id="48102"></path><path d="M720.8704 239.3088c-6.528 0-13.0304-2.7648-17.5872-8.1408-8.2432-9.7024-7.04-24.2432 2.6624-32.4864l14.1824-12.032a23.0144 23.0144 0 0 1 32.4608 2.6624c8.2432 9.7024 7.04 24.2432-2.6624 32.4864l-14.1824 12.032a22.7712 22.7712 0 0 1-14.8736 5.4784z" fill="#E5504C" p-id="48103"></path><path d="M790.4512 301.1328c-7.3984 0-14.6944-3.5584-19.1232-10.1632l-14.1568-21.0432c-7.1168-10.5472-4.3264-24.8832 6.2464-31.9744 10.5472-7.1168 24.8832-4.3264 31.9744 6.2464l14.1568 21.0432c7.1168 10.5472 4.3264 24.8832-6.2464 31.9744a23.0784 23.0784 0 0 1-12.8512 3.9168z" fill="#009F95" p-id="48104"></path></svg>