<?xml version="1.0" standalone="no"?><!DOCTYPE svg PUBLIC "-//W3C//DTD SVG 1.1//EN" "http://www.w3.org/Graphics/SVG/1.1/DTD/svg11.dtd"><svg t="1634699373272" class="icon" viewBox="0 0 1024 1024" version="1.1" xmlns="http://www.w3.org/2000/svg" p-id="48246" xmlns:xlink="http://www.w3.org/1999/xlink" width="128" height="128"><defs><style type="text/css"></style></defs><path d="M726.6816 120.2432s-144.9984-91.1616-224.4608 45.1328c20.48 21.12 28.6976 43.392 23.936 64.7936 24.9856 1.3568 64.9472-7.168 91.52-49.536 11.0592-22.144 22.8096-30.8224 46.1312-29.184 23.3472 1.6128 46.5152-0.5376 62.8736-31.2064zM667.52 209.664s-28.5952 48-62.7456 57.8816c33.8432 7.04 95.488 19.7376 137.9072-39.3216-36.8896-0.512-75.1616-18.56-75.1616-18.56zM447.7952 203.8528s69.2224 24.5248-3.584 120.192c6.5792 28.0832 9.5488 44.2112 18.9184 45.952-24.2688 9.0112-53.0432 32.5376-54.4256 33.92-5.5552-18.7136-15.104-58.1632-15.7952-65.1008-10.752-14.1568-21.376-76.032 54.8864-134.9632zM358.4256 552.0128s69.0688-153.3952 237.7728-163.0976c32.1536-0.7424 46.6688 14.3872 44.3648 52.224-2.304 37.888-18.944 145.8176-167.6544 221.7216-24.704-56.6272-74.5984-100.0704-114.4832-110.848zM280.7808 629.4528s84.608 30.0032 118.3232 118.7584c26.3168-9.6768 52.5824-50.7136-13.1072-113.92-64.384-61.9776-101.7856-10.112-105.216-4.8384zM203.1872 707.0464s82.6624 31.9744 116.5312 120.576c26.2144-9.5744 56.4992-51.1744-11.5712-115.456-64.9984-61.3632-101.5552-10.368-104.96-5.12zM911.3344 304.9216s91.1616 144.9984-45.1328 224.4608c-21.12-20.48-43.392-28.6976-64.7936-23.936-1.3568-24.9856 7.168-64.9472 49.536-91.52 22.144-11.0592 30.8224-22.8096 29.184-46.1312s0.5376-46.5408 31.2064-62.8736zM821.9136 364.0576s-48 28.5952-57.8816 62.7456c-7.04-33.8432-19.7376-95.488 39.3216-137.9072 0.512 36.9152 18.56 75.1616 18.56 75.1616zM827.7248 583.808s-24.5248-69.2224-120.192 3.584c-28.0832-6.5792-44.2112-9.5488-45.952-18.9184-9.0112 24.2688-32.5376 53.0432-33.92 54.4256 18.7136 5.5552 58.1632 15.104 65.1008 15.7952 14.1824 10.7264 76.032 21.376 134.9632-54.8864z" fill="#FEA869" p-id="48247"></path><path d="M459.2128 544.9728c-3.584 0-7.168-1.2544-10.0864-3.7888a15.36256 15.36256 0 0 1-1.4848-21.6832c32.64-37.4784 87.04-67.8656 89.344-69.1456a15.36 15.36 0 0 1 20.8896 5.9904 15.36 15.36 0 0 1-5.9904 20.8896c-0.768 0.4352-52.096 29.184-81.0752 62.464a15.39328 15.39328 0 0 1-11.5968 5.2736z" fill="#F7F8F8" p-id="48248"></path><path d="M503.68 225.152a23.1424 23.1424 0 0 0 4.1216 18.9184 22.9888 22.9888 0 0 0 17.1008 9.088c1.536 0.0768 3.4048 0.1536 5.5808 0.1536 21.6832 0 72.7296-6.272 106.7008-60.4416 0.4096-0.64 0.768-1.28 1.1008-1.9456 8.32-16.6912 12.6464-17.28 23.9104-16.4864 17.792 1.2288 59.4688 4.1472 84.7872-43.3408 5.6832-10.6752 2.1504-23.9104-8.064-30.336-3.1232-1.9456-77.1328-47.7184-154.112-28.8256-42.4448 10.4192-76.928 37.9648-102.528 81.8432a23.05536 23.05536 0 0 0 3.3536 27.648c15.0272 15.4112 21.0688 30.1312 18.048 43.7248z m91.904-108.416c34.2528-8.4992 69.4528 1.024 92.5696 10.2912-6.016 1.9712-13.2864 2.0736-22.7072 1.4336-39.936-2.7904-57.2672 20.0704-67.8144 40.7808-14.5664 22.7072-33.0752 32.128-48.1792 35.8144-2.0992-12.5952-7.552-26.7264-18.6112-41.6 17.6384-24.7296 39.3472-40.4224 64.7424-46.72z" fill="#474E54" p-id="48249"></path><path d="M677.3248 188.8256c-10.7008-5.0432-23.5008-1.1008-29.568 9.0368-9.344 15.5648-31.0272 42.2656-49.3824 47.5904a23.04256 23.04256 0 0 0 1.7152 44.6976c13.4912 2.816 32.4608 6.7584 53.6064 6.7584 34.9184 0 75.8016-10.752 107.6992-55.1936a23.00672 23.00672 0 0 0 1.8688-23.808 23.08864 23.08864 0 0 0-20.2496-12.672c-31.2064-0.4608-65.1776-16.1792-65.6896-16.4096z m-10.8032 61.0816c3.6352-4.1984 6.8608-8.2688 9.6256-11.9552 4.5056 1.6128 9.7024 3.328 15.36 4.9664-8.064 3.7888-16.4096 5.9648-24.9856 6.9888zM386.6112 410.496c2.304 7.7824 8.5504 13.7728 16.4096 15.7952 1.8688 0.4864 3.7888 0.7168 5.6832 0.7168 5.7344 0 11.3152-2.1504 15.616-6.0928 4.0704-3.5072 28.1344-22.3232 46.8224-29.2608a23.04512 23.04512 0 0 0 3.456-41.5744c-1.6128-4.352-3.6352-12.6976-5.5552-20.8896 27.4688-38.9376 37.0432-73.1648 28.4928-101.8624-9.8048-32.8448-38.784-43.9808-42.0352-45.1328a23.06048 23.06048 0 0 0-21.7856 3.4816c-81.6128 63.0528-78.2848 132.8128-62.7712 161.4848 2.8928 15.232 11.264 48.512 15.6672 63.3344z m62.6176-177.8432c1.6896 2.0736 3.2 4.6592 4.1472 7.7824 2.688 8.9856 2.6624 30.0032-27.4944 69.6576a23.06304 23.06304 0 0 0-4.096 19.2256l1.5104 6.4768c2.0992 9.0624 4.0704 17.5616 6.4768 25.088-2.5344 1.5104-5.0432 3.0464-7.4496 4.608-3.328-13.5168-6.0928-25.7792-6.5024-28.928a23.04512 23.04512 0 0 0-4.4032-11.4176c-4.1216-6.8608-11.9296-47.3856 37.8112-92.4928z" fill="#474E54" p-id="48250"></path><path d="M459.2384 681.4208c0.5632 2.7136 1.6128 5.4016 3.2 7.8592 0.4864 0.7424 47.9488 76.672 23.8848 128.8704a23.03232 23.03232 0 0 0 11.2896 30.5664 23.04 23.04 0 0 0 9.6256 2.1248c8.704 0 17.0496-4.9664 20.9408-13.3888 22.3488-48.4864 6.0928-104.1152-9.1904-139.008 11.4944 14.4896 24.1408 32.8192 27.8272 46.5152 2.7648 10.2656 12.0832 17.0496 22.2208 17.0496 1.9968 0 4.0192-0.256 6.016-0.7936 12.288-3.328 19.5584-15.9744 16.2304-28.2624-8.7296-32.2816-40.9344-69.7088-52.7872-82.7136 0.256-0.1792 0.512-0.3584 0.7424-0.5376 1.5616 2.2016 3.5072 4.1984 5.888 5.8112l49.7408 33.792a23.0144 23.0144 0 0 0 32-6.0928c7.1424-10.5216 4.4032-24.8576-6.1184-32l-45.4144-30.8736c44.8512-41.728 67.5072-85.9648 78.592-123.5712a23.296 23.296 0 0 0 6.2976 0.5888l24.6784-1.1264-0.7424 30.08c-0.3328 12.7232 9.728 23.296 22.4512 23.6032h0.5888c12.4672 0 22.7072-9.9328 23.0144-22.4512l0.7424-29.8496c0.2048-4.7104 0-21.888-12.7232-34.8416-6.0928-6.1952-17.0752-13.4144-34.9184-12.5952l-20.4544 0.9472c0.2816-2.9696 0.512-5.8112 0.6912-8.5504 0.0512-0.8704 0.0768-1.7152 0.128-2.5856l28.288-4.992c12.5184-2.2016 20.8896-14.1568 18.688-26.7008-2.2016-12.544-14.1568-20.8896-26.7008-18.688l-28.7744 5.0688a53.376 53.376 0 0 0-8.2176-11.1104c-2.944-3.072-6.272-5.7344-9.9072-8.0128l4.9152-27.904a23.04768 23.04768 0 0 0-45.3888-8.0128l-4.6848 26.496c-3.8144 0.256-7.6032 0.5632-11.3664 0.9728l0.8704-18.816c0.8192-17.8432-6.4-28.8512-12.5952-34.944-12.9792-12.7232-30.1824-12.928-34.8672-12.7232l-29.8496 0.7424c-12.7232 0.3328-22.784 10.88-22.4512 23.6032 0.3328 12.7232 10.9568 22.7328 23.6032 22.4512l30.08-0.768-1.1264 24.6784c-0.0768 1.5104 0.0256 2.9696 0.2304 4.4032-47.2576 12.9024-90.6752 37.7344-128 73.4208l-26.0608-38.3744c-7.1424-10.5216-21.4784-13.2608-32-6.1184-10.5216 7.1424-13.2608 21.4784-6.1184 32l32.2816 47.5136c-0.4352 0.5632-0.8704 1.1264-1.3056 1.664-16.8704-14.5152-47.5648-38.3232-74.5984-45.6192-12.288-3.3024-24.9344 3.9424-28.2624 16.2304s3.9424 24.9344 16.2304 28.2624c12.9792 3.5072 31.2064 15.7184 46.592 27.8784-34.8672-15.2832-90.5728-31.5904-139.0848-9.216-11.5456 5.3248-16.6144 19.0208-11.2896 30.5664s19.0208 16.5888 30.5664 11.2896c52.5568-24.2176 127.6416 23.0912 128.896 23.9104 0.7168 0.4608 1.4848 0.8448 2.2272 1.2288a23.1168 23.1168 0 0 0 7.8336 3.8656c31.1808 8.4224 76.5952 45.568 99.3792 97.8176a23.54432 23.54432 0 0 0 7.5264 9.3696z m-67.968-141.0816c24.832-39.6032 89.856-121.5232 205.824-128.384 8.2944-0.1536 14.336 1.152 16.6656 3.584 1.152 1.2032 4.8896 6.528 3.7888 24.2176-2.7392 44.9536-24.32 127.36-134.784 191.5392-22.528-39.3984-56.3968-72.96-91.4944-90.9568z" fill="#474E54" p-id="48251"></path><path d="M401.9968 617.7024c-28.2112-27.136-56.4992-39.296-84.096-36.1216-34.432 3.9424-53.0432 30.1312-56.4224 35.328-3.84 5.888-4.7104 13.2352-2.4832 19.8912a23.168 23.168 0 0 0 14.0288 14.3616c0.7424 0.2816 75.2384 28.0832 104.576 105.2672a23.04256 23.04256 0 0 0 21.5296 14.8736c2.6368 0 5.3248-0.4608 7.936-1.408 21.12-7.7568 37.12-26.2656 41.728-48.2816 4.6848-22.3488 0.384-58.496-46.7968-103.9104z m-75.4176 9.472c12.4672 0.128 27.392 8.2688 43.4432 23.7312 27.5456 26.5216 33.5104 44.8 34.0736 54.8608-22.7584-38.2976-53.4528-63.3856-77.5168-78.592z" fill="#474E54" p-id="48252"></path><path d="M323.968 695.3984c-28.6464-27.0336-57.1392-39.04-84.736-35.7376-33.8688 4.0704-52.0704 29.7216-55.3728 34.8416a22.94272 22.94272 0 0 0-2.56 19.5584 23.08352 23.08352 0 0 0 13.5168 14.4128c0.7424 0.2816 73.7792 29.9008 103.3984 107.3408a23.05792 23.05792 0 0 0 21.5296 14.8224c2.6112 0 5.2992-0.4608 7.8848-1.408 17.3824-6.3488 37.9648-22.912 43.6224-50.3552 4.6336-22.4512 0.1792-58.6496-47.2832-103.4752z m2.432 92.544c-22.9376-40.2432-54.2464-66.7392-78.4384-82.688h0.1024c12.5696 0 27.8016 8.1152 44.288 23.68 23.7312 22.4 36.0192 43.7504 34.048 59.008zM113.8688 567.6544c125.0048-142.1568 235.264-176.512 237.0048-177.0496a23.05792 23.05792 0 0 0 15.6416-28.544c-3.5584-12.2112-16.3328-19.2512-28.544-15.6928-4.992 1.4592-123.648 37.2736-258.688 190.848-8.3968 9.5488-7.4752 24.1152 2.0992 32.512a22.99904 22.99904 0 0 0 15.2064 5.7344c6.3488 0.0256 12.7232-2.6368 17.28-7.808zM930.8416 292.6592c-6.4256-10.24-19.6608-13.7472-30.336-8.064-47.488 25.3184-44.5952 66.9952-43.3408 84.7872 0.7936 11.264 0.2048 15.5904-16.4864 23.9104-0.6656 0.3328-1.3312 0.6912-1.9456 1.1008-59.5968 37.4016-61.2352 95.4112-60.288 112.3072a22.9888 22.9888 0 0 0 9.088 17.1008 22.97856 22.97856 0 0 0 18.9184 4.1216c13.5936-3.0208 28.3136 3.0208 43.7504 17.9968a23.07072 23.07072 0 0 0 27.648 3.3792c43.8784-25.5744 71.424-60.0832 81.8432-102.528 18.8672-76.9792-26.88-151.0144-28.8512-154.112z m-15.9232 143.104c-6.272 25.4976-21.9648 47.3088-46.7712 64.9984-14.8736-11.0592-29.0048-16.4864-41.6-18.6112 3.6864-15.104 13.1072-33.6128 35.8144-48.1792 20.7104-10.5216 43.5712-27.8528 40.8064-67.8144-0.6656-9.4976-0.5376-16.7936 1.4848-22.8352 9.216 22.9632 18.7136 57.9584 10.2656 92.4416z" fill="#474E54" p-id="48253"></path><path d="M741.4528 431.5136c2.1504 10.368 11.0848 17.92 21.6832 18.3296 0.3072 0 0.5888 0.0256 0.896 0.0256 10.2144 0 19.2512-6.7584 22.1184-16.64 5.3248-18.3552 32-40.0128 47.5648-49.3824 10.1888-6.0672 14.08-18.8928 9.0368-29.6192-0.1536-0.3328-15.9232-34.6112-16.384-65.664a23.08864 23.08864 0 0 0-12.672-20.2496c-7.68-3.8656-16.8448-3.1488-23.808 1.8688-71.3472 51.2512-55.8592 125.5936-48.4352 161.3312z m47.2064-91.4176c1.6384 5.6576 3.3536 10.8288 4.9664 15.36a219.63776 219.63776 0 0 0-11.9552 9.6256c1.0496-8.576 3.2256-16.9472 6.9888-24.9856zM804.3008 534.0672c-28.6976-8.5504-62.9504 1.024-101.8624 28.4928-8.192-1.92-16.5376-3.9168-20.8896-5.5552a23.05024 23.05024 0 0 0-41.5744 3.456c-6.9376 18.688-25.7536 42.7264-29.2608 46.8224a23.04768 23.04768 0 0 0-5.4016 21.2992 22.97344 22.97344 0 0 0 15.7952 16.4096c14.8224 4.3776 48.1024 12.7744 63.3856 15.6672 9.2928 5.0176 22.8608 8.7552 39.1424 8.7552 33.9968 0 79.6928-16.3328 122.3424-71.5264a23.06048 23.06048 0 0 0 3.4816-21.7856c-1.1776-3.2768-12.288-32.256-45.1584-42.0352z m-97.8688 86.0928a22.75584 22.75584 0 0 0-11.264-4.4032c-3.2256-0.4096-15.5392-3.1744-29.0816-6.5024a249.344 249.344 0 0 0 4.608-7.4496c7.5264 2.4064 16 4.3776 25.088 6.4768l6.4768 1.5104c6.6816 1.5616 13.7472 0.0768 19.2-4.096 39.2192-29.8496 60.1856-30.1056 69.1968-27.6224 3.3536 0.9216 6.0672 2.5088 8.2432 4.3008-45.056 49.7152-85.5808 41.9072-92.4672 37.7856zM669.5168 665.088c-12.2112-3.5584-25.0112 3.4816-28.544 15.6928-0.3072 1.1008-33.408 110.6688-177.024 236.9536-9.5488 8.3968-10.496 22.9632-2.0992 32.512a23.00416 23.00416 0 0 0 17.3056 7.8336c5.4016 0 10.8288-1.8944 15.2064-5.7344 153.5744-135.04 189.3888-253.696 190.848-258.688 3.5584-12.2368-3.4816-25.0368-15.6928-28.5696zM98.9184 758.4768c-11.4944 5.4784-16.3584 19.2256-10.8544 30.72s19.2512 16.3328 30.72 10.8544c0.4864-0.2304 41.3952-19.2768 78.0544-3.8144L154.4192 838.656c-8.9856 8.9856-8.9856 23.5776 0 32.5888 4.5056 4.5056 10.3936 6.7584 16.2816 6.7584s11.8016-2.2528 16.2816-6.7584l44.3392-44.3392c20.9664 36.4544 1.152 77.7472 0.2304 79.6416a23.03232 23.03232 0 0 0 10.1888 30.9504 23.0144 23.0144 0 0 0 30.9504-10.1888c1.7408-3.456 42.1376-85.632-20.6848-148.4544-62.592-62.5408-149.4272-22.144-153.088-20.3776z" fill="#474E54" p-id="48254"></path></svg>