<?xml version="1.0" standalone="no"?><!DOCTYPE svg PUBLIC "-//W3C//DTD SVG 1.1//EN" "http://www.w3.org/Graphics/SVG/1.1/DTD/svg11.dtd"><svg t="1634699326450" class="icon" viewBox="0 0 1024 1024" version="1.1" xmlns="http://www.w3.org/2000/svg" p-id="47010" xmlns:xlink="http://www.w3.org/1999/xlink" width="128" height="128"><defs><style type="text/css"></style></defs><path d="M894.1568 922.1888H122.7776c-36.096 0-65.3568-29.2608-65.3568-65.3568v-18.944h902.0928v18.944c0 36.096-29.2608 65.3568-65.3568 65.3568z" fill="#77C5E8" p-id="47011"></path><path d="M258.7136 837.888S78.3104 788.224 128 647.04c18.304-48.3584 77.1328-88.8832 75.8272-151.6288-1.3056-62.7456 301.9776-217.0112 532.0448 54.912 36.608 47.0528 129.408 214.3744-22.2208 287.5904-164.7104-0.0256-454.9376-0.0256-454.9376-0.0256z" fill="#FEA869" p-id="47012"></path><path d="M788.1984 712.3968c-51.968 33.2288-102.8096 51.072-162.6112 60.5696l-4.0704-4.864s-246.4256-25.6512-123.5456-252.4416c0 0-182.144 67.4816-25.1904 267.4176-32.9472 0.3584-68.7104 0.1536-108.16-0.1024-203.9296-1.3056-239.5648-126.8992-239.5648-126.8992-25.1904 175.0784 119.5776 181.8112 119.5776 181.8112h415.4368c122.9056 0 129.8176-78.3104 128.128-125.4912z" fill="#FC9047" p-id="47013"></path><path d="M472.064 593.5872s43.136-214.3744 332.032-104.576c26.1376 13.0816 52.3008 37.9136 35.3024 104.576s-95.4624 207.8976-282.368 163.4048c-60.928-24.832-94.1056-101.9648-84.9664-163.4048z" fill="#FEA869" p-id="47014"></path><path d="M807.808 505.6512s-23.5264 172.7488-188.2368 188.4416c-69.9392 1.3056-135.9616-55.552-135.296-111.7696-10.3168 64.6912 4.0448 208.8192 157.5936 182.6304 96.0256-21.8368 196.0192-94.3872 196.6848-234.2656-11.136-30.72-30.7456-25.0368-30.7456-25.0368z" fill="#FC9047" p-id="47015"></path><path d="M442.0096 118.4c0.1536 0.0768 16.3328 8.3456 28.3136 23.7568 15.488 19.9424 17.0752 42.3936 4.8128 68.7104-0.128 0.3072-0.2816 0.5888-0.4096 0.896-18.2784 44.16-13.8496 119.2448 42.0352 145.3824 3.1488 1.4848 6.4768 2.176 9.7536 2.176a23.0656 23.0656 0 0 0 20.8896-13.2864c5.4016-11.52 0.4352-25.2416-11.1104-30.6432-29.4144-13.7728-28.0832-63.488-19.1488-85.632 24.4992-53.12 7.8592-92.3392-10.4448-115.9168-18.5856-23.936-42.0096-35.6864-44.6208-36.9664-11.4432-5.5296-25.2416-0.7424-30.7712 10.7008-5.5552 11.4944-0.768 25.2672 10.7008 30.8224zM348.9536 175.1296c0.256 0.1024 24.704 11.2384 31.4624 30.2592 3.3024 9.3184 1.8176 19.6864-4.5568 31.6928-0.1792 0.3072-0.3328 0.64-0.4864 0.9728-10.8288 22.9632-11.8528 53.1968-2.6112 77.0048 7.7312 19.9168 21.9904 34.6368 41.2416 42.5472 2.8672 1.1776 5.8368 1.7408 8.7552 1.7408 9.0624 0 17.664-5.376 21.3248-14.2848 4.8384-11.776-0.768-25.2416-12.544-30.08-7.5008-3.072-12.6464-8.4992-15.7952-16.5888-5.2224-13.44-3.3792-30.336 1.152-40.2944 15.3088-29.2864 12.2624-53.1712 6.9632-68.096-13.44-37.8624-52.4544-55.3984-56.8576-57.2672-11.6992-4.9664-25.2416 0.4864-30.208 12.1856s0.4608 25.2416 12.16 30.208zM271.3344 216.3712c3.4304 1.4336 18.1504 9.6 22.0416 20.5568 0.7424 2.0736 2.9696 8.3712-3.3024 19.9936-0.1792 0.3072-0.3328 0.64-0.4864 0.9728-9.0624 18.9184-10.0096 43.8784-2.3552 63.5648 6.5792 16.9728 18.8416 29.4912 35.4048 36.1984 2.816 1.152 5.76 1.6896 8.6272 1.6896 9.1136 0 17.7408-5.4528 21.376-14.4128a23.05536 23.05536 0 0 0-12.7232-30.0032c-4.6848-1.8944-7.7824-5.12-9.728-10.1376-3.4048-8.8064-2.1504-20.1728 0.768-26.624 12.8256-24.192 10.2656-44.1344 5.8368-56.6272-11.2128-31.6416-44.0064-46.1312-47.6928-47.6928-11.7248-4.9152-25.2416 0.64-30.1312 12.3648-4.9152 11.7504 0.64 25.2416 12.3648 30.1568z" fill="#474E54" p-id="47016"></path><path d="M320.4608 522.2144c0.384-0.4864 0.5376-0.7936 0.5376-0.7936l-30.464-18.8672c4.608-7.4496 33.8176-44.4928 154.2144-41.9328 9.9072 0.2048 17.7408 8.3968 17.536 18.304a17.8816 17.8816 0 0 1-18.304 17.536c-100.5824-2.0736-123.2896 25.4976-123.52 25.7536z" fill="#F7F8F8" p-id="47017"></path><path d="M580.4032 565.1968a17.89952 17.89952 0 0 1-9.0368-33.3824c2.8416-1.6384 70.1696-40.1152 128.7424-15.3344 9.1136 3.8656 13.3888 14.3616 9.5232 23.4752-3.8656 9.1136-14.3616 13.3888-23.4752 9.5232-41.9328-17.7408-96.256 13.0304-96.7936 13.3376-2.8416 1.6128-5.9392 2.3808-8.96 2.3808z" fill="#F7F8F8" p-id="47018"></path><path d="M959.5136 814.848h-176.0512c16.2304-18.304 27.264-39.5776 32.9216-63.744 4.8128-20.5568 5.2992-41.7536 2.816-62.592 22.016-30.5408 35.84-62.976 42.5472-89.216 7.552-29.5936 8.0384-55.0144 1.5616-76.1088 9.6-8.7296 20.2752-18.3296 29.1328-26.0352 5.8112-5.0432 13.696-7.0912 21.1712-5.2736 27.136 6.6048 59.136 7.0144 66.5088-15.4368 8.4224-25.6768-27.1872-36.0192-27.1872-36.0192s18.3808-39.8336-14.1824-45.5936c-32.5632-5.7344-47.488 50.56-50.56 65.1264-1.664 7.8848-27.0592 17.2032-50.3552 23.9104-6.6816-5.8624-14.464-11.0336-23.3728-15.488-0.6912-0.3328-1.408-0.6656-2.1248-0.9216-64.256-24.4224-121.6768-35.2256-171.8016-32.4352-41.728-26.5984-86.3488-45.0048-133.5552-54.9632-71.808-15.1552-148.4032-9.472-215.7056 15.9744-51.5072 19.4816-111.3344 57.3184-110.464 99.8144 0.64 31.232-18.4832 57.1136-38.7328 84.5056-13.568 18.3296-27.5712 37.2992-35.6096 58.496-0.0512 0.1792-0.128 0.3328-0.1792 0.512-14.976 42.5984-13.1328 82.2528 5.504 117.888 12.416 23.7568 30.9504 42.7008 50.5344 57.5744H57.4208a23.04 23.04 0 0 0-23.04 23.04v18.944c0 48.7424 39.6544 88.3968 88.3968 88.3968h771.3792c48.7424 0 88.3968-39.6544 88.3968-88.3968v-18.944c0-12.6976-10.3168-23.0144-23.04-23.0144z m-254.3104-329.856c27.648 4.6592 57.5488 13.0304 89.6512 25.1648 13.5936 6.8352 36.9152 20.1472 22.2464 77.7728-2.8416 11.1616-7.4496 23.9872-13.8496 37.3504 0 0-22.7328 39.7312-32.9216 50.8672-6.9888 8.192-14.6944 16.0512-23.2448 23.2704-48.1536 40.6528-109.6704 52.6336-182.912 35.6352-50.3552-21.6576-76.4416-87.9104-69.4016-137.3184 1.3056-5.7856 16.0256-64.5632 73.6512-96.384 17.792-9.8304 37.8624-16.128 60.1088-18.944 0-0.0512 49.0496-5.6832 76.672 2.5856zM152.5248 735.7696c-12.544-24.0896-13.4912-50.5344-2.8928-80.8448 5.8112-15.1808 17.3056-30.72 29.4656-47.1808 22.8096-30.848 48.64-65.792 47.744-112.64 1.4848-9.9584 34.1248-43.1872 103.2704-63.5392 45.056-13.2352 138.2656-29.4912 240.9728 17.792a195.65312 195.65312 0 0 0-24.96 11.5712c-78.8224 43.52-95.9488 124.672-96.64 128.1024-0.0768 0.384-0.1536 0.768-0.2048 1.152-9.984 66.9952 25.0624 157.9776 99.072 188.1344 1.1008 0.4352 2.2016 0.7936 3.3536 1.0752 26.5216 6.3232 51.1488 9.1648 73.9584 9.1648 61.44 0 109.6448-20.6848 146.2528-49.9968-0.1536 0.6656-0.256 1.3568-0.4096 2.0224-7.4496 31.8208-28.1856 56.1664-63.2832 74.24H262.144c-14.6176-4.608-83.4048-28.7232-109.6192-79.0528z m741.632 163.3792H122.7776c-21.9648 0-40.064-16.8192-42.1376-38.2464h855.6288c-2.048 21.4528-20.1472 38.2464-42.112 38.2464z" fill="#474E54" p-id="47019"></path></svg>