<?xml version="1.0" standalone="no"?><!DOCTYPE svg PUBLIC "-//W3C//DTD SVG 1.1//EN" "http://www.w3.org/Graphics/SVG/1.1/DTD/svg11.dtd"><svg t="1634699364039" class="icon" viewBox="0 0 1024 1024" version="1.1" xmlns="http://www.w3.org/2000/svg" p-id="47922" xmlns:xlink="http://www.w3.org/1999/xlink" width="128" height="128"><defs><style type="text/css"></style></defs><path d="M646.272 807.3216h-266.24c-166.0928 0-300.7488-134.656-300.7488-300.7488v-93.0048h867.7376v93.0048c0.0256 166.1184-134.6304 300.7488-300.7488 300.7488z" fill="#BA8288" p-id="47923"></path><path d="M831.2832 429.0304s45.824 350.0288-321.3824 377.6768c96.9984 0 350.208 44.544 437.12-244.224 0-103.9872-4.9664-142.2592-4.9664-142.2592l-110.7712 8.8064z" fill="#8D545A" p-id="47924"></path><path d="M134.6304 432.256S201.5232 145.9968 500.7872 146.8416c79.5392-1.1264 317.6448 37.3248 384.3584 266.752-203.2128-0.0256-750.5152 18.6624-750.5152 18.6624z" fill="#DADAF7" p-id="47925"></path><path d="M660.0192 895.7696H369.2288c-31.8208 0-57.6-21.2992-57.6-47.5904v-41.4976h405.9904v41.4976c0 26.2912-25.8048 47.5904-57.6 47.5904z" fill="#8D545A" p-id="47926"></path><path d="M246.144 671.2064c-3.456 0-6.9632-0.9984-10.0608-3.0976-62.6432-42.5728-66.048-138.7264-66.1504-142.8224-0.2816-9.9072 7.5264-18.1248 17.408-18.4064a17.856 17.856 0 0 1 18.4064 17.3824c0.0256 0.8704 3.0976 81.9968 50.4832 114.2016a17.91232 17.91232 0 0 1 4.7616 24.8832c-3.4816 5.12-9.1136 7.8592-14.848 7.8592z" fill="#F7F8F8" p-id="47927"></path><path d="M311.936 307.2768c-4.736 0-9.5232-1.4592-13.6448-4.5056l-16.3072-12.032c-10.24-7.552-12.4416-21.9648-4.8896-32.2048s21.9648-12.416 32.2048-4.8896l16.3072 12.032c10.24 7.552 12.4416 21.9648 4.8896 32.2048-4.5056 6.1696-11.4688 9.3952-18.56 9.3952z" fill="#70E7D3" p-id="47928"></path><path d="M246.0416 369.0496c-7.3216 0-14.5152-3.4816-18.9952-9.984A23.03744 23.03744 0 0 1 232.96 327.0144l19.328-13.312c10.4704-7.2192 24.832-4.5824 32.0512 5.9136s4.5824 24.832-5.9136 32.0512l-19.328 13.312a23.04 23.04 0 0 1-13.056 4.0704z" fill="#F7F8F8" p-id="47929"></path><path d="M360.3712 374.2464c-7.4496 0-14.7456-3.6096-19.2-10.2656l-9.4464-14.1568a23.02464 23.02464 0 0 1 6.4-31.9488c10.5728-7.0656 24.8832-4.1984 31.9488 6.3744l9.4464 14.1824a23.02464 23.02464 0 0 1-6.4 31.9488 22.89664 22.89664 0 0 1-12.7488 3.8656z" fill="#FFE08A" p-id="47930"></path><path d="M430.1568 335.2576c-4.4544 0-8.9344-1.28-12.8768-3.968l-14.592-9.8816a23.02976 23.02976 0 0 1-6.1696-32c7.1168-10.5472 21.4528-13.312 32-6.1696l14.592 9.8816a23.02976 23.02976 0 0 1 6.1696 32c-4.4544 6.6048-11.7248 10.1376-19.1232 10.1376z" fill="#67B8FA" p-id="47931"></path><path d="M455.7568 385.4336c-8.2944 0-16.2816-4.48-20.4032-12.3136-5.9136-11.264-1.6128-25.1904 9.6512-31.1296l16.3072-8.576c11.264-5.9392 25.1904-1.6128 31.1296 9.6512 5.9136 11.264 1.6128 25.1904-9.6512 31.1296l-16.3072 8.576a23.2448 23.2448 0 0 1-10.7264 2.6624zM383.9488 274.6624c-5.6832 0-11.392-2.0992-15.8464-6.3232-9.2416-8.7552-9.6256-23.3472-0.8448-32.5632l15.8976-16.7424c8.7552-9.2416 23.3472-9.6256 32.5632-0.8448 9.2416 8.7552 9.6256 23.3472 0.8448 32.5632l-15.8976 16.7424a23.02208 23.02208 0 0 1-16.7168 7.168z" fill="#F7F8F8" p-id="47932"></path><path d="M488.1152 247.296c-4.352 0-8.7296-1.2288-12.6464-3.7888l-16.3072-10.7264c-10.624-6.9888-13.568-21.2736-6.5792-31.9232 6.9888-10.624 21.2736-13.568 31.8976-6.5792l16.3072 10.7264c10.624 6.9888 13.568 21.2736 6.5792 31.9232a22.9888 22.9888 0 0 1-19.2512 10.368z" fill="#FFE08A" p-id="47933"></path><path d="M540.0064 348.416c-5.888 0-11.8016-2.2528-16.2816-6.7584l-16.7424-16.7424c-8.9856-8.9856-8.9856-23.5776 0-32.5888a23.06816 23.06816 0 0 1 32.5888 0l16.7424 16.7424c8.9856 8.9856 8.9856 23.5776 0 32.5888a22.96832 22.96832 0 0 1-16.3072 6.7584z" fill="#FFA869" p-id="47934"></path><path d="M554.6752 271.8464c-9.7024 0-18.7136-6.1696-21.888-15.8976-3.9424-12.1088 2.6624-25.1136 14.7456-29.056l21.0432-6.8608c12.0832-3.9424 25.1136 2.6624 29.056 14.7456 3.9424 12.1088-2.6624 25.1136-14.7456 29.056l-21.0432 6.8608c-2.3808 0.7936-4.7872 1.152-7.168 1.152z" fill="#FC697C" p-id="47935"></path><path d="M654.08 269.056c-5.6064 0-11.2384-2.048-15.6672-6.144l-12.032-11.1616c-9.3184-8.6528-9.856-23.2448-1.2032-32.5632 8.6528-9.3184 23.2448-9.856 32.5632-1.2032l12.032 11.1616c9.3184 8.6528 9.856 23.2448 1.2032 32.5632a23.03744 23.03744 0 0 1-16.896 7.3472z" fill="#F7F8F8" p-id="47936"></path><path d="M592.3072 385.4336c-4.992 0-10.0352-1.6128-14.2592-4.9664-9.984-7.8848-11.6992-22.3744-3.8144-32.3584l12.8768-16.3072c7.8848-9.984 22.3744-11.6992 32.3584-3.8144 9.984 7.8848 11.6992 22.3744 3.8144 32.3584l-12.8768 16.3072a22.9888 22.9888 0 0 1-18.0992 8.7808z" fill="#77C5E8" p-id="47937"></path><path d="M698.24 375.8592c-7.4496 0-14.7456-3.6096-19.2-10.2656l-11.5968-17.3824a23.02464 23.02464 0 0 1 6.4-31.9488c10.5728-7.0656 24.8832-4.1984 31.9488 6.4l11.5968 17.3824a23.02464 23.02464 0 0 1-6.4 31.9488 22.8352 22.8352 0 0 1-12.7488 3.8656z" fill="#FFE08A" p-id="47938"></path><path d="M714.2144 310.5792c-6.528 0-13.0304-2.7648-17.5872-8.1408-8.2432-9.7024-7.04-24.2432 2.6624-32.4864l14.1824-12.032a23.0144 23.0144 0 0 1 32.4608 2.6624c8.2432 9.7024 7.04 24.2432-2.6624 32.4864l-14.1824 12.032a22.86848 22.86848 0 0 1-14.8736 5.4784z" fill="#E5504C" p-id="47939"></path><path d="M789.8624 369.1264c-7.3984 0-14.6944-3.5584-19.1232-10.1632l-14.1568-21.0432c-7.1168-10.5472-4.3264-24.8832 6.2464-31.9744 10.5472-7.1168 24.8832-4.3264 31.9744 6.2464l14.1568 21.0432c7.1168 10.5472 4.3264 24.8832-6.2464 31.9744a23.13728 23.13728 0 0 1-12.8512 3.9168z" fill="#009F95" p-id="47940"></path><path d="M947.0464 390.528h-41.3696c-25.1136-71.4752-71.1936-134.1696-133.5552-181.5296-10.1376-7.68-24.576-5.7088-32.2816 4.4288s-5.7088 24.576 4.4288 32.2816c50.6368 38.4512 89.0624 88.2432 112.128 144.8192H173.696c54.0416-132.9152 188.6464-220.928 341.3504-220.928a23.04 23.04 0 0 0 0-46.08c-88.1408 0-172.1344 26.0352-242.9952 75.264L190.464 62.9248c-6.5536-10.9056-20.7104-14.4384-31.616-7.8848-10.9056 6.5536-14.4384 20.7104-7.8848 31.616l84.5312 140.7488A397.4656 397.4656 0 0 0 210.7904 250.88L95.1808 131.6608a23.04768 23.04768 0 0 0-33.1008 32.0768l118.5536 122.2656c-24.064 31.6928-42.9568 66.816-56.2176 104.5248H79.3088a23.04 23.04 0 0 0-23.04 23.04v93.0048c0 146.7904 98.176 271.0528 232.32 310.6048v31.0016c0 38.9376 36.1728 70.6304 80.64 70.6304h290.7648c44.4672 0 80.64-31.6928 80.64-70.6304v-31.872c132.6592-40.4992 229.4272-164.0192 229.4272-309.76v-93.0048c0.0256-12.6976-10.2912-23.0144-23.0144-23.0144z m-252.4672 439.2192v18.4576c0 13.312-15.8208 24.5504-34.56 24.5504H369.2288c-18.7392 0-34.56-11.2384-34.56-24.5504v-18.4576h25.4464c6.6048 0.4096 13.2352 0.64 19.9424 0.64h266.24c6.7072 0 13.3376-0.2304 19.9424-0.64h28.3392z m229.4272-323.1744c0 146.8928-114.6624 267.52-259.2 277.0688H361.5232c-144.5376-9.5744-259.2-130.176-259.2-277.0688v-69.9648h821.6576v69.9648z" fill="#474E54" p-id="47941"></path><path d="M631.8848 187.5712c5.8112 1.8432 11.6736 3.8656 17.408 5.9904 2.6624 0.9984 5.376 1.4592 8.0384 1.4592 9.344 0 18.1504-5.7344 21.6064-15.0016 4.4288-11.9296-1.6384-25.1904-13.5424-29.6192-6.4512-2.4064-13.0048-4.6592-19.5328-6.7328-12.1088-3.8656-25.088 2.8672-28.928 15.0016s2.816 25.0624 14.9504 28.9024z" fill="#474E54" p-id="47942"></path></svg>