<?xml version="1.0" standalone="no"?><!DOCTYPE svg PUBLIC "-//W3C//DTD SVG 1.1//EN" "http://www.w3.org/Graphics/SVG/1.1/DTD/svg11.dtd"><svg t="1634699353030" class="icon" viewBox="0 0 1024 1024" version="1.1" xmlns="http://www.w3.org/2000/svg" p-id="47611" xmlns:xlink="http://www.w3.org/1999/xlink" width="128" height="128"><defs><style type="text/css"></style></defs><path d="M761.3184 140.8256l6.7072-47.8976-102.7584-5.9904-12.7232 109.8752-16.9984-1.9712 2.9696-62.8992h-109.952l-0.6912 50.4832-20.3264-2.3552 2.5344-93.1328-104.8832-3.9936-0.9728 85.2224-15.8464-1.8176-3.5072-57.3696-116.736 7.9872 5.376 54.4768-25.6768-84.5312-82.4064 18.9952 79.7696 246.3232h26.5472c0 41.1904 11.1872 79.9232 30.848 113.7408v0.0768c0.2048 0.3328 0.4096 0.6656 0.6144 1.024 1.0752 1.8432 2.2016 3.6608 3.328 5.4784 0.384 0.6144 0.7424 1.2288 1.1264 1.8176 1.536 2.4064 3.1232 4.7872 4.736 7.1424 0.2816 0.4096 0.5888 0.8192 0.8704 1.2288 1.3568 1.9456 2.7392 3.84 4.1472 5.7344 0.5376 0.7168 1.0752 1.408 1.6128 2.1248 1.2288 1.6128 2.4832 3.2 3.7376 4.7872 0.5632 0.7168 1.152 1.4336 1.7152 2.1248 1.3824 1.6896 2.7904 3.3536 4.224 4.992 0.4608 0.512 0.896 1.0496 1.3568 1.5616 3.8656 4.3776 7.8848 8.6016 12.0832 12.7232 0.4608 0.4608 0.9472 0.896 1.408 1.3568 1.664 1.5872 3.328 3.1744 5.0432 4.736 0.5376 0.512 1.1008 0.9984 1.664 1.5104 1.7664 1.5872 3.5584 3.1488 5.376 4.6848 0.4352 0.3584 0.8448 0.7424 1.28 1.1008 4.6336 3.8656 9.3952 7.5776 14.336 11.136 0.2304 0.1792 0.4608 0.3328 0.7168 0.4864 2.2016 1.5616 4.4288 3.0976 6.6816 4.608 0.4608 0.3072 0.9216 0.6144 1.3824 0.896 147.2 100.4032 287.6416 4.2752 287.6416 4.2752v-0.0768c10.7776-6.656 21.0432-14.0032 30.592-22.0672 0.1024-0.0768 0.2048-0.1792 0.2816-0.256 1.7664-1.5104 3.5328-3.0208 5.248-4.5824 0.256-0.2304 0.4864-0.4608 0.7424-0.6912 1.1776-1.0752 2.3808-2.1248 3.5328-3.2256v-0.0512c46.0544-43.1616 74.5216-102.6816 74.5216-168.4224h20.7872l41.6512-191.3088-83.712-20.0704z" fill="#FFDE77" p-id="47612"></path><path d="M302.592 489.0112c-8.0384 0-15.7184-4.224-19.9168-11.4688-18.304-31.488-29.5168-66.4576-32.896-102.272h-4.608a23.0144 23.0144 0 0 1-21.9136-15.9488L143.488 112.9984c-1.9968-6.144-1.3056-12.8256 1.8688-18.4576a22.98368 22.98368 0 0 1 14.8736-11.0848l82.432-18.9952c11.8016-2.7136 23.7056 4.1728 27.2128 15.744l25.6512 84.4544c0.4352 1.4336 0.7424 2.9184 0.8704 4.4288l29.1072 294.5792a23.03488 23.03488 0 0 1-15.8464 24.192c-2.3296 0.768-4.7104 1.152-7.0656 1.152z m-40.6784-159.8208h3.9936l-15.1296-153.2928-18.7392-61.696-36.9664 8.5248 66.8416 206.464z" fill="#474E54" p-id="47613"></path><path d="M527.1808 613.9136c-1.792 0-3.5584-0.0256-5.3248-0.0512-12.672-0.2304-22.784-10.6752-22.6048-23.3472l6.272-458.9056c0.1792-12.5952 10.4448-22.7328 23.04-22.7328h109.952c6.2976 0 12.3136 2.5856 16.6656 7.1424s6.6304 10.7008 6.3488 16.9984l-20.9664 443.5968a23.0144 23.0144 0 0 1-15.3344 20.6336c-31.36 11.0592-64.3328 16.6656-98.048 16.6656z m24.0896-458.9568l-5.6576 412.2112c16.896-1.2288 33.5104-4.1472 49.664-8.7552l19.072-403.456h-63.0784z" fill="#3F3F3F" p-id="47614"></path><path d="M667.6736 574.592a22.9888 22.9888 0 0 1-12.8-3.8912 23.03488 23.03488 0 0 1-9.9584-22.8096l67.0464-417.1008a23.1168 23.1168 0 0 1 9.9584-15.5136 22.9888 22.9888 0 0 1 18.1504-3.2256l110.3616 26.4704c12.1856 2.9184 19.8144 15.0528 17.152 27.3152l-41.6512 191.3088a23.04 23.04 0 0 1-21.3248 18.0992c-7.3984 79.5392-52.8896 151.5776-124.8512 195.9424a23.09632 23.09632 0 0 1-12.0832 3.4048z m85.8368-411.9296l-53.6832 333.9264c38.0928-39.1424 59.7504-90.2912 59.7504-144.3328a23.04 23.04 0 0 1 23.04-23.04h2.2272l32.896-151.1424-64.2304-15.4112z" fill="#474E54" p-id="47615"></path><path d="M608.3328 601.6256c-5.2992 0-10.496-1.8176-14.6944-5.2992a23.0144 23.0144 0 0 1-8.192-20.4032l56.9344-491.648c1.408-12.1344 12.032-21.0944 24.2176-20.352l102.7584 5.9904a23.0656 23.0656 0 0 1 16.4864 8.3968 23.04512 23.04512 0 0 1 4.992 17.792l-6.7072 47.8976a23.0912 23.0912 0 0 1-9.8304 15.8464c-5.376 3.6608-12.032 4.864-18.3552 3.3536l-2.4064-0.5888-55.2448 343.7312c6.5536 0 13.0816 2.7904 17.6384 8.192 8.192 9.728 6.9632 24.2688-2.7648 32.4608 0 0-0.0256 0-0.0256 0.0256-28.6464 24.1408-61.568 42.1376-97.8944 53.504-2.2784 0.7424-4.608 1.1008-6.912 1.1008z m77.312-490.4448L635.648 542.976c3.712-1.8176 7.3728-3.7376 10.9824-5.76l65.3312-406.4256a23.1168 23.1168 0 0 1 13.1584-17.3056l-39.4752-2.304z" fill="#474E54" p-id="47616"></path><path d="M527.1808 613.9136c-1.6384 0-3.3024-0.0256-4.9408-0.0512h-0.384a23.0272 23.0272 0 0 1-22.656-23.3472l6.272-458.9056c0.1792-12.5952 10.4448-22.7328 23.04-22.7328h109.952c6.2976 0 12.3136 2.5856 16.6656 7.1424a23.10144 23.10144 0 0 1 6.3488 16.9984l-14.848 314.3936c-0.0256 0.512-0.0768 1.0496-0.128 1.5616l-15.3088 132.224a23.03744 23.03744 0 0 1-16 19.328c-28.3648 8.8832-57.984 13.3888-88.0128 13.3888z m24.0896-458.9568l-5.6576 412.2112c14.08-1.024 27.9808-3.2512 41.6-6.6304l13.44-116.096 13.6704-289.4848h-63.0528z m72.3712 291.3536zM412.6464 588.6208c-3.328 0-6.6816-0.7168-9.7792-2.176-51.1744-24.0384-92.7488-61.6704-120.192-108.8256a23.22944 23.22944 0 0 1-3.0208-9.3184L245.1712 119.168c-0.6144-6.1952 1.3056-12.3904 5.3248-17.152s9.8048-7.68 16.0256-8.1152l116.736-8.0128c6.1184-0.4352 12.16 1.6128 16.768 5.6832 4.608 4.0448 7.424 9.7792 7.7824 15.8976l27.8272 456.6784c0.4864 8.1152-3.328 15.8976-10.0608 20.4544a22.6176 22.6176 0 0 1-12.928 4.0192z m-87.6288-129.9712c15.7952 25.7792 36.8384 48 62.0288 65.6384l-23.808-390.784-69.888 4.7872 31.6672 320.3584z" fill="#474E54" p-id="47617"></path><path d="M496.4608 612.1984c-0.8448 0-1.7152-0.0512-2.56-0.1536-31.7696-3.5584-62.4128-12.1856-91.0336-25.6a23.03488 23.03488 0 0 1-13.2096-19.456l-10.9824-180.096c-0.0256-0.5632-0.0512-1.1008-0.0512-1.664l3.4816-302.5664a23.18592 23.18592 0 0 1 7.1424-16.4352 23.00416 23.00416 0 0 1 16.768-6.3232l104.8832 3.9936c12.6208 0.4864 22.5024 11.0336 22.144 23.6544l-13.6192 502.2464a23.00672 23.00672 0 0 1-7.9104 16.7424 22.76096 22.76096 0 0 1-15.0528 5.6576z m-61.6704-62.1056c12.7232 5.12 25.8816 9.1648 39.3472 12.0832l12.288-453.12-58.4704-2.2272-3.2 278.0672 10.0352 165.1968z" fill="#474E54" p-id="47618"></path><path d="M782.6432 352.2304c0 131.8144-114.3808 238.6432-255.4624 238.6432s-255.4624-106.8544-255.4624-238.6432h-80.64l40.3968 516.4288c2.9696 38.0672 36.8896 67.5072 77.7472 67.5072h435.9168c40.8576 0 74.7776-29.4656 77.7472-67.5072l40.3968-516.4288h-80.64z" fill="#FFA869" p-id="47619"></path><path d="M732.544 494.1568l-17.8176 292.736s39.0656 149.5296-204.672 143.4112c2.9952 1.9712 6.016 3.9424 9.0112 5.888h226.0736c40.8576 0 74.7776-29.4656 77.7472-67.5072l40.3968-516.4288h-80.64c0 53.1456-18.6112 102.2464-50.0992 141.9008z" fill="#F99755" p-id="47620"></path><path d="M745.1392 959.232H309.2224c-52.5824 0-96.8192-38.9888-100.7104-88.7552L168.1152 354.0224c-0.512-6.4 1.6896-12.7232 6.0672-17.4336 4.352-4.7104 10.496-7.3984 16.9216-7.3984h80.64a23.04 23.04 0 0 1 23.04 23.04c0 118.8864 104.2688 215.6032 232.4224 215.6032 128.1536 0 232.4224-96.7168 232.4224-215.6032a23.04 23.04 0 0 1 23.04-23.04h80.64c6.4256 0 12.544 2.688 16.9216 7.3984a23.12448 23.12448 0 0 1 6.0672 17.4336l-40.3968 516.4288c-3.9424 49.792-48.1792 88.7808-100.7616 88.7808zM216.0128 375.2704L254.464 866.8672c2.0224 25.9584 26.0864 46.2848 54.784 46.2848h435.9168c28.6976 0 52.7616-20.3264 54.784-46.2848l38.4512-491.5968h-33.792c-12.4416 133.5552-132.1216 238.6432-277.4272 238.6432s-264.9856-105.088-277.4272-238.6432H216.0128z" fill="#474E54" p-id="47621"></path><path d="M515.968 750.08m-90.8544 0a90.8544 90.8544 0 1 0 181.7088 0 90.8544 90.8544 0 1 0-181.7088 0Z" fill="#FFDD79" p-id="47622"></path><path d="M515.968 863.9744c-62.7968 0-113.8944-51.0976-113.8944-113.8944s51.0976-113.8944 113.8944-113.8944 113.8944 51.0976 113.8944 113.8944-51.0976 113.8944-113.8944 113.8944z m0-181.7088c-37.4016 0-67.8144 30.4128-67.8144 67.8144s30.4128 67.8144 67.8144 67.8144 67.8144-30.4128 67.8144-67.8144-30.4128-67.8144-67.8144-67.8144z" fill="#474E54" p-id="47623"></path><path d="M300.5952 781.952c-9.1904 0-17.024-7.04-17.8432-16.3584l-10.4704-119.808a17.8944 17.8944 0 0 1 16.3072-19.4048c9.8048-0.8192 18.56 6.4256 19.4048 16.3072l10.4704 119.808a17.8944 17.8944 0 0 1-16.3072 19.4048c-0.512 0.0256-1.0496 0.0512-1.5616 0.0512z" fill="#F7F8F8" p-id="47624"></path></svg>