<?xml version="1.0" standalone="no"?><!DOCTYPE svg PUBLIC "-//W3C//DTD SVG 1.1//EN" "http://www.w3.org/Graphics/SVG/1.1/DTD/svg11.dtd"><svg t="1634699342089" class="icon" viewBox="0 0 1024 1024" version="1.1" xmlns="http://www.w3.org/2000/svg" p-id="47312" xmlns:xlink="http://www.w3.org/1999/xlink" width="128" height="128"><defs><style type="text/css"></style></defs><path d="M616.8832 900.48h-253.7728c-18.048 0-32.6912-14.6432-32.6912-32.6912v-40.6016h319.1296v40.6016c0.0256 18.048-14.6176 32.6912-32.6656 32.6912z" fill="#FFA869" p-id="47313"></path><path d="M862.464 464.1792H127.0016c-15.1552 0-27.136 12.8512-26.0608 27.9808 10.5472 150.7584 105.7536 278.1696 238.3872 335.0272h310.2464v0.2304c132.9408-56.7296 228.4032-184.2944 238.976-335.2576 1.0496-15.1296-10.9312-27.9808-26.0864-27.9808z" fill="#FFDE77" p-id="47314"></path><path d="M782.976 454.3232s-27.6736 352.512-336.7168 365.5936c149.7856 0 227.072-3.584 227.072-3.584s244.48-136.5248 207.1296-344.9088c-45.184-22.7584-97.4848-17.1008-97.4848-17.1008z" fill="#FFA869" p-id="47315"></path><path d="M862.464 441.1392H469.2992V124.4672a23.04 23.04 0 0 0-46.08 0V173.312h-7.68a23.04 23.04 0 0 0 0 46.08h7.68v55.8848h-7.68a23.04 23.04 0 0 0 0 46.08h7.68v119.7824h-36.1728c0.3584-1.6128 0.5632-3.2768 0.5632-5.0176V142.6432a23.04 23.04 0 0 0-46.08 0v39.8336h-5.0688a23.04 23.04 0 0 0 0 46.08h5.0688v46.7456h-5.0688a23.04 23.04 0 0 0 0 46.08h5.0688v114.7648c0 1.7152 0.2048 3.4048 0.5632 5.0176h-34.2272V161.792a23.04 23.04 0 0 0-46.08 0v31.9488l-4.6848 0.9728c-12.4672 2.5856-20.4544 14.7968-17.8688 27.2384 2.2528 10.88 11.8528 18.3552 22.528 18.3552h0.0256V271.36h-2.56a23.04 23.04 0 0 0 0 46.08h2.56v123.6992H232.6784V187.2384a23.04 23.04 0 0 0-46.08 0v13.0304l-103.68 14.464c-12.5952 1.7664-21.4016 13.3888-19.6352 26.0096 1.6128 11.52 11.4688 19.8656 22.784 19.8656 1.0496 0 2.1248-0.0768 3.2-0.2304l97.3056-13.568v24.576H86.1184a23.04 23.04 0 0 0 0 46.08H186.624v123.6992H127.0016c-13.5936 0-26.7008 5.7088-35.968 15.6416a49.38496 49.38496 0 0 0-13.1072 36.992 416.35072 416.35072 0 0 0 77.7216 214.6048 419.16416 419.16416 0 0 0 151.7312 129.3312V867.84c0 30.72 24.9856 55.7312 55.7312 55.7312h253.7728c30.72 0 55.7312-24.9856 55.7312-55.7312v-25.472a419.0592 419.0592 0 0 0 160.9984-133.6832 416.13312 416.13312 0 0 0 77.9008-214.8608c0.9472-13.568-3.8144-27.0336-13.0816-36.992-9.2672-9.984-22.3744-15.6928-35.968-15.6928z m-235.9296 426.6496c0 5.3248-4.3264 9.6512-9.6512 9.6512h-253.7728c-5.3248 0-9.6512-4.3264-9.6512-9.6512v-17.5616h273.0496v17.5616z m18.7904-63.6416H344.1408c-126.336-55.9872-210.56-175.744-220.2112-313.6-0.0768-0.896 0.2048-1.6896 0.8192-2.3296 0.6144-0.6656 1.3824-0.9984 2.2528-0.9984H862.464c0.896 0 1.6384 0.3328 2.2528 0.9728 0.6144 0.6656 0.896 1.4336 0.8192 2.3296-9.6256 137.9328-93.8496 257.6384-220.2112 313.6256z" fill="#474E54" p-id="47316"></path><path d="M497.8688 208.2816c0.9216 0 1.8688-0.0512 2.816-0.1792L945.792 153.856c12.6208-1.536 21.632-13.0304 20.0704-25.6512-1.536-12.6208-13.056-21.6064-25.6512-20.096L495.104 162.3808c-12.6208 1.536-21.632 13.0304-20.0704 25.6512 1.408 11.6992 11.3408 20.2496 22.8352 20.2496zM966.0416 309.3248c0.3072-12.7232-9.7792-23.2704-22.5024-23.5776l-445.1072-10.4704h-0.5632c-12.4672 0-22.7328 9.9584-23.0144 22.5024-0.3072 12.7232 9.7792 23.2704 22.5024 23.5776l445.1072 10.4704h0.5376c12.4928 0 22.7328-9.9584 23.04-22.5024z" fill="#474E54" p-id="47317"></path><path d="M319.5392 718.2848c-2.7648 0-5.5808-0.7424-8.0896-2.3296-76.8768-47.7952-101.8112-140.544-102.8352-144.4608a15.34208 15.34208 0 0 1 10.9824-18.7392 15.3472 15.3472 0 0 1 18.7392 10.9568c0.2304 0.8448 23.0656 84.9408 89.344 126.1568 7.1936 4.48 9.4208 13.952 4.9408 21.1456a15.39072 15.39072 0 0 1-13.0816 7.2704z" fill="#F7F8F8" p-id="47318"></path></svg>