<?xml version="1.0" standalone="no"?><!DOCTYPE svg PUBLIC "-//W3C//DTD SVG 1.1//EN" "http://www.w3.org/Graphics/SVG/1.1/DTD/svg11.dtd"><svg t="1634699338551" class="icon" viewBox="0 0 1024 1024" version="1.1" xmlns="http://www.w3.org/2000/svg" p-id="47161" xmlns:xlink="http://www.w3.org/1999/xlink" width="128" height="128"><defs><style type="text/css"></style></defs><path d="M64.9216 569.3184s-3.968 211.9936 253.8752 270.2592v51.968h269.9008v-48.4864c269.4912-52.6848 253.696-273.7408 253.696-273.7408s-294.4512 137.0368-777.472 0z" fill="#FFA869" p-id="47162"></path><path d="M658.9184 617.344c-134.2976 20.224-337.5616 24.7296-593.9968-48.0256 0 0-3.84 208.4352 247.4752 268.7488 254.848-31.36 326.4512-152.2432 346.5216-220.7232z" fill="#FFDD79" p-id="47163"></path><path d="M70.7072 554.2144a388.8128 65.792 0 1 0 777.6256 0 388.8128 65.792 0 1 0-777.6256 0Z" fill="#F98043" p-id="47164"></path><path d="M761.7792 541.1584c59.392-99.5072 108.032-129.28 181.632-201.1904 27.776-27.136 17.1008-74.0096-19.6864-86.4768-0.7936-0.256-1.5872-0.5376-2.4064-0.8192-17.024-5.76-35.7376-2.2272-49.7152 9.0624-150.1184 121.4208-204.9024 277.9392-204.9024 277.9392l95.0784 1.4848z" fill="#70E7D3" p-id="47165"></path><path d="M429.4656 331.9552s56.32 23.808 40.064 98.0992c-15.5648 71.1168-141.7728 119.9104-264.6272 21.7856-4.3264-3.456-10.3168 1.408-7.8336 6.3488 33.5616 66.816 117.6576 124.9024 240.9984 100.6592 124.2368-26.7008 211.2512-183.5008 135.3728-294.9632-32.9216-44.1088-93.4656-82.8416-151.936-22.8608-20.48 20.992-27.136 69.4528 7.9616 90.9312z" fill="#E5504C" p-id="47166"></path><path d="M570.8032 581.376c-10.5216 0-20.0192-7.2448-22.4512-17.9456-2.816-12.416 4.9408-24.7552 17.3568-27.5712 2.8416-0.64 5.0432-1.4848 6.2464-1.9968-0.1792-10.4704 6.8608-20.096 17.4592-22.7328 12.3392-3.0976 24.8576 4.4288 27.9296 16.768 1.8432 7.3216 1.4592 18.9696-5.0944 29.6448-7.1168 11.5712-19.328 19.4048-36.3264 23.2448-1.7152 0.384-3.4304 0.5888-5.12 0.5888z m1.5616-43.5968c0.0768 0.4864 0.2048 0.9216 0.2816 1.28-0.1024-0.4096-0.1792-0.8448-0.2816-1.28z" fill="#64D882" p-id="47167"></path><path d="M545.3568 391.0656c-0.6912 0-1.3824-0.0512-2.0736-0.1792a12.76928 12.76928 0 0 1-10.5728-14.6944c10.752-66.1504-37.8624-94.08-39.936-95.232-6.144-3.4304-8.3968-11.2128-5.0176-17.3824a12.7616 12.7616 0 0 1 17.3056-5.0688c23.0912 12.5696 63.8976 54.2208 52.9152 121.8048-1.024 6.272-6.4512 10.752-12.6208 10.752zM375.424 709.9904c-111.0528 0-190.4896-23.3216-193.9712-24.3456a15.3344 15.3344 0 0 1-10.3168-19.0976c2.432-8.1152 10.9568-12.7744 19.0976-10.3168 0.8448 0.256 86.9888 25.472 201.8304 22.8864a15.296 15.296 0 0 1 15.6928 15.0272 15.36 15.36 0 0 1-15.0272 15.6928c-5.8368 0.0768-11.6224 0.1536-17.3056 0.1536z" fill="#FFFFFF" p-id="47168"></path><path d="M980.224 286.1312c-5.8368-25.6512-24.192-46.0032-49.1008-54.4512l-2.432-0.8192c-24.5248-8.2944-51.2768-3.4304-71.5776 12.9792-98.688 79.8208-157.2352 173.44-187.0592 231.8848-24.448-2.6368-50.304-4.7872-77.3632-6.4256 25.1392-42.7008 37.1968-92.416 30.1568-140.6976a23.03488 23.03488 0 0 0-26.1376-19.456 23.03488 23.03488 0 0 0-19.456 26.1376c12.5952 86.2464-55.936 181.9904-143.8208 201.0112-48.1792 9.4464-89.0112 5.12-122.1888-7.1424 32.3072 6.2976 63.7184 4.6592 92.4928-5.376 40.576-14.1824 69.8368-44.6464 78.2592-81.536 14.976-65.536-22.7328-107.2128-45.056-120.32-6.1952-3.8656-9.9584-10.6752-11.136-20.2752-2.1248-16.9728 4.608-36.736 12.2368-44.544 16.4352-16.8448 33.5104-24.8576 50.688-23.7056 21.888 1.4336 46.6688 17.9968 66.2784 44.2624 7.6032 10.1888 22.0416 12.288 32.256 4.6848 10.1888-7.6032 12.288-22.0416 4.6848-32.256-27.9808-37.4784-64.4864-60.3392-100.1728-62.6944-21.4784-1.408-53.9904 3.9424-86.7328 37.504-18.4064 18.8928-28.672 52.7872-24.96 82.432 2.944 23.5776 14.6688 42.752 32.9984 53.9648 0.2816 0.1792 0.1792 0.128 0.384 0.2304 4.1728 2.6112 34.3808 23.296 23.6288 70.4-2.944 12.928-10.8032 24.6272-22.1952 33.8432-46.0544 0.8704-90.4192 3.1488-131.3536 6.6304-21.504-8.8832-43.2384-21.8112-64.2304-38.5792-10.4448-8.3456-24.9856-8.2944-35.3536 0.128a28.032 28.032 0 0 0-7.4496 34.56c2.6368 5.248 5.5808 10.496 8.8576 15.6928-6.5536 1.0752-12.9536 2.176-19.0976 3.328-83.0976 15.616-118.5536 35.5584-118.5536 66.6624 0 1.7152 0.128 3.4048 0.3584 5.0688-0.2048 1.1264-0.3328 2.304-0.3584 3.4816-0.0512 2.4064-0.7168 59.5968 32.8192 124.3136 29.4144 56.7808 91.4944 130.1504 221.0304 164.4544v17.8176c0 21.5808 17.536 39.1168 39.1168 39.1168h237.7472c21.5808 0 39.1168-17.536 39.1168-39.1168v-13.7984c149.888-35.072 211.2768-122.24 236.3136-190.592a23.04768 23.04768 0 0 0-13.7216-29.568 23.04768 23.04768 0 0 0-29.568 13.7216c-21.9648 60.0064-78.08 137.3696-220.5184 165.1968a23.05536 23.05536 0 0 0-18.6112 22.6048v25.4464h-223.8208v-28.928c0-10.7776-7.4496-20.096-17.9712-22.4768-99.0976-22.4-168.8064-70.5792-207.2576-143.232-12.4416-23.5264-19.4816-46.0288-23.4752-64.0768 20.5056 7.4752 47.5392 13.952 81.8176 19.7632 74.6752 12.6464 173.6704 19.6096 278.784 19.6096s204.1088-6.9632 278.784-19.6096c93.2864-15.7952 133.0688-36.5056 133.0688-69.248 0-26.0608-26.5984-41.2416-56.6016-51.328 30.2592-40.7296 59.5456-67.5072 94.208-99.1232 15.872-14.4896 32.2816-29.4656 50.5344-47.3088 18.7904-18.304 26.5472-44.5952 20.7104-70.2464z m-52.9408 37.376c-17.6896 17.28-33.8176 32-49.3824 46.2336-47.8976 43.7248-89.2928 81.5104-135.9104 159.616-6.528 10.9312-2.944 25.0624 7.9872 31.5904 3.712 2.2016 7.7568 3.2512 11.776 3.2512 7.8592 0 15.488-4.0192 19.8144-11.2384 2.0736-3.4816 4.1472-6.8352 6.1952-10.1632 15.4112 4.4032 24.96 8.3968 30.7712 11.392-12.1856 6.2976-40.96 17.024-105.7536 26.6496-69.8368 10.3936-159.7696 16.128-253.2352 16.128s-183.3984-5.7344-253.2352-16.128c-64.768-9.6256-93.5424-20.352-105.7536-26.6496 11.2384-5.7856 36.5312-15.3344 91.0848-24.3456 8.8832-1.4592 18.2016-2.8416 27.8528-4.1472 37.2736 35.1744 91.776 61.8496 162.56 61.8496 18.9952 0 39.168-1.92 60.4672-6.1184 0.128-0.0256 0.256-0.0512 0.4096-0.0768 44.8768-9.6512 85.248-34.3808 116.5056-67.6864 31.6416 1.4336 61.8496 3.5328 90.2144 6.272-2.816 6.912-4.3264 11.1616-4.6848 12.1344-4.1984 12.0064 2.1248 25.1648 14.1312 29.3632 12.032 4.1984 25.1648-2.1248 29.3632-14.1312 0.5376-1.5104 54.272-151.68 197.6576-267.6224 7.9616-6.4256 18.3552-8.3456 27.8272-5.1456l2.4064 0.8192c9.7792 3.3024 16.6912 10.9824 18.9696 21.0176 2.2528 10.0352-0.6656 19.9168-8.0384 27.136z" fill="#474E54" p-id="47169"></path><path d="M210.9696 265.9584c3.7888 2.3808 8.0128 3.5072 12.2112 3.5072a23.04 23.04 0 0 0 19.5584-10.8288c0.2304-0.3584 23.168-35.7888 55.04-42.4704 9.2928-1.9456 18.56-1.2032 28.0064 2.2528-7.9104 20.4288-12.2112 45.6192-9.4208 76.4928 1.0752 11.9552 11.136 20.9664 22.912 20.9664 0.6912 0 1.408-0.0256 2.0992-0.1024 12.672-1.152 22.016-12.3392 20.864-25.0112-3.5584-39.3216 7.1936-70.2464 31.9488-91.9296 19.1488-16.768 40.1408-22.144 40.7808-22.2976a23.03488 23.03488 0 0 0 17.152-27.5968c-2.8672-12.3904-15.232-20.1216-27.6224-17.28-3.1488 0.7168-31.4624 7.7312-58.8288 30.9248a141.5424 141.5424 0 0 0-16 15.8976c-20.0448-9.2416-40.6016-11.7504-61.3632-7.424-51.3792 10.752-83.328 60.9792-84.6592 63.1296-6.7328 10.8032-3.4816 25.0112 7.3216 31.7696zM647.5264 301.7728c10.5984 0 19.1744-8.576 19.1744-19.1744 0-10.5984-8.576-19.1744-19.1744-19.1744-10.5984 0-19.1744 8.576-19.1744 19.1744-0.0256 10.5728 8.576 19.1744 19.1744 19.1744z" fill="#474E54" p-id="47170"></path></svg>